<svg width="150" height="150" viewBox="0 0 150 150" fill="none" xmlns="http://www.w3.org/2000/svg">
<rect width="150" height="150" rx="20" fill="#2F3458"/>
<path d="M131.18 41.9189C130.004 38.7084 128.231 35.7597 125.957 33.2346C123.538 30.5895 120.601 28.4902 117.337 27.0724C114.072 25.6546 110.552 24.9495 107.004 25.0028C104.057 24.97 101.122 25.3917 98.2983 26.2536C95.7195 27.0709 93.2838 28.2983 91.0811 29.8905C88.8947 31.4967 86.9603 33.4318 85.3439 35.6297C83.6565 37.9488 82.2641 40.4763 81.2 43.1519L59 92.4275V125C61.1367 124.869 63.2487 124.464 65.2856 123.794C67.8197 122.883 70.1303 121.424 72.0588 119.518C74.1675 117.404 75.965 114.989 77.3955 112.351C79.0032 109.477 80.7444 106.118 82.619 102.274L107.622 50.8692V96.8539C106.613 96.2227 105.481 95.8231 104.305 95.683C102.233 95.3903 98.5333 95.683 93.7625 96.8184V108.953C93.7625 108.953 102.12 104.518 107.622 108.669V123.749H133V52.1643C133.011 48.6647 132.394 45.1925 131.18 41.9189Z" fill="white"/>
<path d="M58.2382 41.0104C55.6231 41.7583 53.1753 42.9816 51.0226 44.6163C48.8485 46.3536 46.9426 48.3896 45.364 50.6611C43.638 53.0912 41.8052 55.8872 39.75 59.1622L17 96.1277V124C19.0448 123.928 21.0802 123.692 23.0856 123.294C25.7823 122.643 28.3685 121.614 30.7639 120.237C33.0527 118.942 35.1234 117.308 36.9029 115.394C38.6776 113.502 40.1747 111.376 41.3514 109.08L65 67.4803V40C62.7162 40.1042 60.4498 40.4428 58.2382 41.0104Z" fill="white"/>
</svg>
