<svg aria-hidden="true" style="position: absolute; width: 0; height: 0; overflow: hidden;" version="1.1" xmlns="http://www.w3.org/2000/svg" xmlns:xlink="http://www.w3.org/1999/xlink">
<defs>
<symbol id="burger-menu" viewBox="0 0 32 32">
<path fill="#f2f4ff" style="fill: var(--color1, #f2f4ff)" d="M4 9.333c0-0.736 0.597-1.333 1.333-1.333h21.333c0.736 0 1.333 0.597 1.333 1.333s-0.597 1.333-1.333 1.333h-21.333c-0.736 0-1.333-0.597-1.333-1.333z"></path>
<path fill="#f2f4ff" style="fill: var(--color1, #f2f4ff)" d="M4 16c0-0.736 0.597-1.333 1.333-1.333h21.333c0.736 0 1.333 0.597 1.333 1.333s-0.597 1.333-1.333 1.333h-21.333c-0.736 0-1.333-0.597-1.333-1.333z"></path>
<path fill="#f2f4ff" style="fill: var(--color1, #f2f4ff)" d="M4 22.667c0-0.736 0.597-1.333 1.333-1.333h21.333c0.736 0 1.333 0.597 1.333 1.333s-0.597 1.333-1.333 1.333h-21.333c-0.736 0-1.333-0.597-1.333-1.333z"></path>
</symbol>
<symbol id="close-burger-menu" viewBox="0 0 32 32">
<path fill="#f2f4ff" style="fill: var(--color1, #f2f4ff)" d="M8.35 23.648c-0.467-0.469-0.467-1.23 0-1.7l13.525-13.596c0.467-0.469 1.224-0.469 1.691 0s0.467 1.23 0 1.7l-13.525 13.596c-0.467 0.469-1.224 0.469-1.691 0z"></path>
<path fill="#f2f4ff" style="fill: var(--color1, #f2f4ff)" d="M8.434 8.352c0.467-0.469 1.224-0.469 1.691 0l13.525 13.596c0.467 0.469 0.467 1.23 0 1.7s-1.224 0.469-1.691 0l-13.525-13.596c-0.467-0.469-0.467-1.23 0-1.7z"></path>
</symbol>
<symbol id="logo" viewBox="0 0 32 32">
<path fill="#2f3458" style="fill: var(--color2, #2f3458)" d="M32.005 15.999c0 3.164-0.938 6.258-2.695 8.889s-4.256 4.682-7.18 5.894c-2.923 1.211-6.14 1.529-9.244 0.912s-5.955-2.14-8.193-4.377c-2.238-2.237-3.763-5.087-4.381-8.191s-0.302-6.32 0.908-9.244c1.21-2.924 3.26-5.423 5.89-7.183s5.723-2.699 8.888-2.7c2.102-0.001 4.183 0.412 6.125 1.216s3.707 1.982 5.193 3.468c1.487 1.486 2.666 3.25 3.47 5.191s1.219 4.023 1.219 6.124z"></path>
<path fill="#fff" style="fill: var(--color3, #fff)" d="M12.679 8.733c-0.398 0.116-0.771 0.307-1.099 0.561-0.331 0.27-0.621 0.587-0.862 0.94-0.263 0.378-0.542 0.813-0.855 1.322l-3.464 5.75v4.336c0.311-0.011 0.621-0.048 0.927-0.11 0.411-0.101 0.804-0.261 1.169-0.476 0.349-0.201 0.664-0.456 0.935-0.753 0.27-0.294 0.498-0.625 0.677-0.982l3.601-6.471v-4.275c-0.348 0.016-0.693 0.069-1.030 0.157z"></path>
<path fill="#fff" style="fill: var(--color3, #fff)" d="M24.135 8.637c-0.183-0.49-0.459-0.941-0.813-1.326-0.377-0.404-0.834-0.725-1.342-0.941s-1.056-0.324-1.608-0.316c-0.459-0.005-0.915 0.059-1.355 0.191-0.401 0.125-0.78 0.312-1.123 0.555-0.34 0.245-0.641 0.541-0.893 0.877-0.263 0.354-0.479 0.74-0.645 1.149l-3.455 7.526v4.975c0.333-0.020 0.661-0.082 0.978-0.184 0.394-0.139 0.754-0.362 1.054-0.653 0.328-0.323 0.608-0.692 0.831-1.095 0.25-0.439 0.521-0.952 0.813-1.539l3.891-7.851v7.024c-0.157-0.096-0.333-0.157-0.516-0.179-0.322-0.045-0.898 0-1.641 0.173v1.853c0 0 1.301-0.677 2.157-0.043v2.303h3.949v-10.934c0.002-0.535-0.094-1.065-0.283-1.565z"></path>
<path fill="#fff" style="fill: var(--color3, #fff)" d="M7.368 23.588l0.626-0.882h0.457v1.069h-0.29v-0.928l-0.677 0.928h-0.241l-0.668-0.928v0.928h-0.285v-1.069h0.454l0.625 0.882z"></path>
<path fill="#fff" style="fill: var(--color3, #fff)" d="M10.016 22.706h0.291l-0.579 1.211c-0.032 0.077-0.078 0.148-0.135 0.209-0.051 0.048-0.113 0.083-0.18 0.103-0.082 0.021-0.166 0.031-0.251 0.030-0.054 0.001-0.108-0.004-0.161-0.014v-0.135c0.035 0.006 0.071 0.009 0.107 0.009 0.059 0.001 0.118-0.007 0.175-0.026 0.046-0.020 0.085-0.053 0.112-0.095 0.048-0.073 0.090-0.149 0.126-0.229h-0.122l-0.686-1.069h0.287l0.589 0.948 0.425-0.943z"></path>
<path fill="#fff" style="fill: var(--color3, #fff)" d="M12.050 23.775h-0.287v-0.94h-0.805v0.635c0 0.206-0.152 0.309-0.453 0.309h-0.135v-0.135h0.043c0.072 0.005 0.145-0.006 0.211-0.034 0.034-0.022 0.052-0.070 0.052-0.145v-0.757h1.379l-0.005 1.068z"></path>
<path fill="#fff" style="fill: var(--color3, #fff)" d="M12.52 22.706h0.287v0.431h0.691c0.366 0 0.55 0.106 0.55 0.32 0.002 0.051-0.012 0.101-0.039 0.144s-0.066 0.077-0.113 0.097c-0.125 0.056-0.261 0.083-0.398 0.077h-0.978v-1.069zM13.402 23.645c0.092 0.006 0.184-0.008 0.271-0.041 0.026-0.014 0.048-0.036 0.062-0.062s0.020-0.056 0.017-0.086c0.003-0.030-0.003-0.060-0.017-0.087s-0.036-0.049-0.062-0.063c-0.092-0.033-0.191-0.046-0.289-0.039h-0.583v0.378h0.6z"></path>
<path fill="#fff" style="fill: var(--color3, #fff)" d="M14.903 22.836h-0.646v-0.135h1.587v0.135h-0.652v0.939h-0.289v-0.939z"></path>
<path fill="#fff" style="fill: var(--color3, #fff)" d="M16.108 23.775v-1.069h0.283v0.875l0.969-0.875h0.347v1.069h-0.283v-0.87l-0.959 0.87h-0.356z"></path>
<path fill="#fff" style="fill: var(--color3, #fff)" d="M20.325 23.252v-0.153c0.005-0.067-0.009-0.134-0.041-0.194-0.019-0.023-0.042-0.041-0.068-0.055s-0.055-0.022-0.084-0.024c-0.118-0.017-0.237-0.024-0.356-0.020-0.090-0.002-0.181 0.002-0.271 0.012-0.049 0.003-0.096 0.019-0.135 0.047-0.014 0.013-0.025 0.029-0.033 0.047s-0.012 0.037-0.013 0.056v0.031h-0.293c-0.001-0.040 0.007-0.080 0.025-0.117s0.045-0.067 0.078-0.091c0.074-0.049 0.159-0.078 0.247-0.087 0.135-0.014 0.271-0.020 0.406-0.019 0.155-0.002 0.311 0.007 0.465 0.027 0.099 0.009 0.193 0.046 0.271 0.108 0.033 0.031 0.058 0.069 0.074 0.111s0.023 0.087 0.020 0.132v0.71h-0.271l0.011-0.135c-0.039 0.041-0.085 0.075-0.135 0.1-0.059 0.024-0.122 0.038-0.186 0.043-0.073 0.007-0.176 0.011-0.308 0.011-0.138 0.002-0.276-0.007-0.413-0.026-0.089-0.011-0.173-0.045-0.244-0.1-0.029-0.028-0.052-0.061-0.067-0.099s-0.021-0.078-0.018-0.118c-0.002-0.038 0.004-0.076 0.018-0.111s0.037-0.067 0.066-0.092c0.070-0.053 0.154-0.086 0.241-0.096 0.13-0.019 0.261-0.027 0.393-0.026 0.145 0 0.26 0 0.341 0.014 0.062 0.004 0.124 0.017 0.183 0.038 0.038 0.017 0.071 0.043 0.098 0.075zM20.325 23.463c0.002-0.025-0.002-0.050-0.012-0.074s-0.023-0.045-0.041-0.062c-0.052-0.035-0.113-0.055-0.176-0.057-0.084-0.008-0.217-0.014-0.4-0.014-0.112-0.005-0.225 0.008-0.333 0.038-0.031 0.009-0.058 0.029-0.077 0.055s-0.027 0.059-0.025 0.091c-0.002 0.049 0.014 0.097 0.045 0.135 0.037 0.037 0.084 0.062 0.135 0.072 0.084 0.015 0.169 0.022 0.255 0.020 0.148 0 0.264 0 0.348-0.012 0.070-0.003 0.139-0.021 0.201-0.054 0.025-0.012 0.046-0.031 0.061-0.055s0.023-0.051 0.023-0.078l-0.004-0.007z"></path>
<path fill="#fff" style="fill: var(--color3, #fff)" d="M21.383 23.651v0.584h-0.289v-1.53h0.28l-0.009 0.135c0.072-0.060 0.157-0.102 0.249-0.122 0.115-0.026 0.232-0.038 0.35-0.035 0.165-0.007 0.331 0.014 0.489 0.064 0.046 0.014 0.089 0.037 0.126 0.067s0.068 0.068 0.090 0.11c0.038 0.099 0.056 0.204 0.051 0.31 0.002 0.079-0.007 0.158-0.024 0.236-0.016 0.064-0.049 0.123-0.096 0.169-0.063 0.055-0.138 0.094-0.22 0.112-0.126 0.030-0.256 0.044-0.386 0.041-0.123 0.002-0.245-0.008-0.366-0.030-0.091-0.014-0.176-0.053-0.245-0.112zM21.383 23.234c0.001 0.087 0.015 0.173 0.042 0.256 0.012 0.030 0.031 0.057 0.054 0.079s0.051 0.039 0.081 0.050c0.108 0.034 0.221 0.049 0.333 0.043 0.122 0.006 0.245-0.009 0.362-0.045 0.032-0.010 0.062-0.028 0.087-0.051s0.044-0.052 0.055-0.084c0.022-0.083 0.031-0.169 0.028-0.255 0.003-0.083-0.006-0.166-0.027-0.247-0.012-0.030-0.030-0.056-0.054-0.078s-0.051-0.038-0.082-0.047c-0.115-0.037-0.235-0.053-0.355-0.046-0.121-0.005-0.242 0.009-0.359 0.042-0.030 0.009-0.058 0.025-0.081 0.046s-0.042 0.047-0.054 0.076c-0.023 0.085-0.034 0.172-0.031 0.26z"></path>
<path fill="#fff" style="fill: var(--color3, #fff)" d="M23.586 22.836h-0.65v-0.135h1.588v0.135h-0.648v0.939h-0.287l-0.003-0.939z"></path>
</symbol>

<symbol id="hero-promotion" viewBox="0 0 32 32">
<path fill="#f6f6f6" style="fill: var(--color1, #f6f6f6)" d="M12.881 11.667c0-0.184 0.149-0.333 0.333-0.333h7.333c0.184 0 0.333 0.149 0.333 0.333s-0.149 0.333-0.333 0.333h-7.333c-0.184 0-0.333-0.149-0.333-0.333z"></path>
<path fill="#f6f6f6" style="fill: var(--color1, #f6f6f6)" d="M22.215 6c0.368 0 0.667 0.298 0.667 0.667v20c0 0.368-0.298 0.667-0.667 0.667h-10.667c-0.368 0-0.667-0.299-0.667-0.667v-20c0-0.368 0.298-0.667 0.667-0.667h10.667zM11.548 5.333c-0.736 0-1.333 0.597-1.333 1.333v20c0 0.736 0.597 1.333 1.333 1.333h10.667c0.736 0 1.333-0.597 1.333-1.333v-20c0-0.736-0.597-1.333-1.333-1.333h-10.667z"></path>
<path fill="#f6f6f6" style="fill: var(--color1, #f6f6f6)" d="M19.548 14c0.368 0 0.667 0.298 0.667 0.667v2.667c0 0.368-0.298 0.667-0.667 0.667h-5.333c-0.368 0-0.667-0.298-0.667-0.667v-2.667c0-0.368 0.298-0.667 0.667-0.667h5.333zM14.215 13.333c-0.736 0-1.333 0.597-1.333 1.333v2.667c0 0.736 0.597 1.333 1.333 1.333h5.333c0.736 0 1.333-0.597 1.333-1.333v-2.667c0-0.736-0.597-1.333-1.333-1.333h-5.333z"></path>
<path fill="#f6f6f6" style="fill: var(--color1, #f6f6f6)" d="M10.52 8.533c0.074 0.169-0.004 0.365-0.172 0.439l-4.809 2.096c-0.497 0.217-0.731 0.79-0.527 1.293l6.025 14.847c0.069 0.171-0.013 0.365-0.184 0.434s-0.365-0.013-0.434-0.183l-6.025-14.847c-0.34-0.838 0.050-1.793 0.878-2.155l4.809-2.096c0.169-0.074 0.365 0.004 0.439 0.172z"></path>
</symbol>
<symbol id="hero-after-printing" viewBox="0 0 32 32">
<path fill="#f6f6f6" style="fill: var(--color1, #f6f6f6)" d="M23.34 5.987h-14.078v20.692h15.492v-19.451c0-0.623-0.824-1.24-1.414-1.24zM8.362 27.636v-22.545h14.956c1.18 0 2.137 1.009 2.137 2.255v20.291h-17.093z"></path>
<path fill="#f6f6f6" style="fill: var(--color1, #f6f6f6)" d="M6.545 8.508c0-0.187 0.144-0.338 0.321-0.338h3.632c0.177 0 0.32 0.151 0.32 0.338s-0.143 0.338-0.32 0.338h-3.632c-0.177 0-0.321-0.151-0.321-0.338z"></path>
<path fill="#f6f6f6" style="fill: var(--color1, #f6f6f6)" d="M6.545 12.678c0-0.187 0.144-0.338 0.321-0.338h3.632c0.177 0 0.32 0.151 0.32 0.338s-0.143 0.338-0.32 0.338h-3.632c-0.177 0-0.321-0.151-0.321-0.338z"></path>
<path fill="#f6f6f6" style="fill: var(--color1, #f6f6f6)" d="M6.545 17.188c0-0.187 0.144-0.338 0.321-0.338h3.632c0.177 0 0.32 0.151 0.32 0.338s-0.143 0.338-0.32 0.338h-3.632c-0.177 0-0.321-0.151-0.321-0.338z"></path>
<path fill="#f6f6f6" style="fill: var(--color1, #f6f6f6)" d="M6.545 21.697c0-0.187 0.144-0.338 0.321-0.338h3.632c0.177 0 0.32 0.151 0.32 0.338s-0.143 0.338-0.32 0.338h-3.632c-0.177 0-0.321-0.151-0.321-0.338z"></path>
<path fill="#f6f6f6" style="fill: var(--color1, #f6f6f6)" d="M21.733 10.069l-5.553 4.371 0.797 0.467c0.165 0.097 0.16 0.348-0.008 0.438l-1.649 0.884 1.867 1.094c0.129 0.076 0.161 0.257 0.066 0.376l-3.555 4.476 7.259-4.42-1.883-1.103c-0.149-0.087-0.163-0.308-0.026-0.416l2.213-1.742-1.929-1.131c-0.132-0.077-0.162-0.263-0.061-0.382l2.463-2.914zM23.002 8.508c0.227-0.179 0.504 0.141 0.316 0.364l-3.569 4.222 1.979 1.16c0.149 0.087 0.163 0.308 0.026 0.416l-2.213 1.742 1.919 1.125c0.16 0.094 0.162 0.335 0.003 0.432l-8.495 5.172c-0.228 0.139-0.466-0.162-0.298-0.374l4.105-5.168-1.98-1.16c-0.165-0.096-0.16-0.348 0.008-0.438l1.649-0.884-0.74-0.434c-0.149-0.087-0.163-0.308-0.026-0.416l7.316-5.759z"></path>
</symbol>
<symbol id="hero-ctp" viewBox="0 0 32 32">
<path fill="#f6f6f6" style="fill: var(--color1, #f6f6f6)" d="M16 4.961l11.377 5.689-11.377 6.4-11.377-6.4 11.377-5.689zM6.044 10.684l9.956 5.6 9.956-5.6-9.956-4.978-9.956 4.978z"></path>
<path fill="#f6f6f6" style="fill: var(--color1, #f6f6f6)" d="M9.149 12.389l0.37 0.555-3.548 2.365 10.034 5.644 10.678-5.653-3.535-2.356 0.37-0.555 4.465 2.977-11.989 6.347-11.299-6.356 4.452-2.968z"></path>
<path fill="#f6f6f6" style="fill: var(--color1, #f6f6f6)" d="M5.997 19.324l2.841-1.705-0.343-0.572-3.825 2.295 11.325 6.37 12.016-6.362-3.84-2.304-0.343 0.572 2.827 1.696-10.65 5.638-10.008-5.63z"></path>
</symbol>

<symbol id="offers-paint" viewBox="0 0 32 32">
<path fill="#c8b1a1" style="fill: var(--color1, #c8b1a1)" d="M15.322 6.843l0.255 0.255c0.199 0.199 0.436 0.542 0.665 0.951 0.232 0.416 0.466 0.922 0.651 1.462 0.362 1.056 0.57 2.337 0.080 3.306-0.796 1.574-3.147 1.581-3.93-0.003-0.441-0.893-0.224-1.957 0.215-2.935 0.445-0.99 1.154-1.973 1.831-2.763l0.234-0.273zM15.338 7.857c-0.569 0.7-1.118 1.505-1.473 2.296-0.415 0.923-0.531 1.747-0.225 2.366 0.535 1.083 2.185 1.090 2.737-0.003 0.361-0.713 0.236-1.765-0.115-2.789-0.171-0.5-0.389-0.97-0.602-1.354-0.114-0.204-0.223-0.378-0.321-0.517z"></path>
<path fill="#c8b1a1" style="fill: var(--color1, #c8b1a1)" d="M10.667 18.333c0-0.184 0.149-0.333 0.333-0.333h8.667c0.184 0 0.333 0.149 0.333 0.333s-0.149 0.333-0.333 0.333h-8.667c-0.184 0-0.333-0.149-0.333-0.333z"></path>
<path fill="#c8b1a1" style="fill: var(--color1, #c8b1a1)" d="M11.341 15.667c0-0.184 0.149-0.333 0.333-0.333h10c0.184 0 0.333 0.149 0.333 0.333s-0.149 0.333-0.333 0.333h-10c-0.184 0-0.333-0.149-0.333-0.333z"></path>
<path fill="#c8b1a1" style="fill: var(--color1, #c8b1a1)" d="M6.667 20.5c0-0.184 0.149-0.333 0.333-0.333h11.333c0.184 0 0.333 0.149 0.333 0.333s-0.149 0.333-0.333 0.333h-11.333c-0.184 0-0.333-0.149-0.333-0.333z"></path>
<path fill="#c8b1a1" style="fill: var(--color1, #c8b1a1)" d="M8.752 5l0.039 0.368c0.211 2.001 0.371 5.078 0.194 7.974-0.089 1.448-0.261 2.843-0.55 4.030-0.291 1.195-0.692 2.145-1.213 2.738-0.029 0.033-0.072 0.057-0.146 0.065-0.078 0.008-0.178-0.005-0.284-0.041-1.033-0.347-2.066 0.2-2.636 1.080-0.579 0.895-0.722 2.175-0.001 3.416 0.438 0.754 1.3 1.036 2.072 1.036h14.229c0.849 0 1.725-0.488 2.519-1.359 0.798-0.875 1.544-2.168 2.142-3.864 1.195-3.393 1.808-8.447 1.004-15.15l-0.035-0.294h-17.333zM20.455 25c-2.169 0-3.122-0.565-3.498-1.157-0.378-0.597-0.261-1.367 0.048-1.985 0.462-0.924 1.248-1.168 1.922-1.058 0.344 0.056 0.652 0.205 0.869 0.399s0.325 0.418 0.325 0.634c0 0.863-0.608 1.298-1.176 1.387-0.294 0.046-0.51-0.012-0.605-0.085-0.040-0.031-0.054-0.059-0.059-0.089-0.006-0.035-0.004-0.108 0.057-0.231l-0.596-0.298c-0.105 0.211-0.153 0.428-0.118 0.638 0.036 0.215 0.153 0.386 0.308 0.506 0.295 0.229 0.724 0.279 1.117 0.217 0.806-0.127 1.739-0.775 1.739-2.046 0-0.451-0.227-0.843-0.546-1.13s-0.748-0.486-1.207-0.562c-0.933-0.152-2.021 0.208-2.626 1.417-0.358 0.715-0.573 1.758-0.015 2.64 0.195 0.308 0.473 0.578 0.847 0.801h-11.015c-0.643 0-1.223-0.235-1.495-0.704-0.591-1.018-0.462-2.029-0.016-2.719 0.455-0.704 1.2-1.034 1.864-0.811 0.313 0.105 0.813 0.159 1.142-0.216 0.627-0.713 1.060-1.788 1.36-3.020 0.302-1.24 0.478-2.676 0.568-4.147 0.169-2.769 0.035-5.692-0.159-7.717h16.002c0.743 6.483 0.13 11.331-1.005 14.556-0.576 1.638-1.284 2.845-2.005 3.636-0.726 0.796-1.437 1.141-2.026 1.141z"></path>
</symbol>
<symbol id="offers-printer" viewBox="0 0 32 32">
<path fill="#c8b1a1" style="fill: var(--color1, #c8b1a1)" d="M18 15.867c-0.295 0-0.533-0.239-0.533-0.533s0.239-0.533 0.533-0.533c0.295 0 0.533 0.239 0.533 0.533s-0.239 0.533-0.533 0.533zM18 16c0.368 0 0.667-0.299 0.667-0.667s-0.299-0.667-0.667-0.667-0.667 0.299-0.667 0.667c0 0.368 0.298 0.667 0.667 0.667z"></path>
<path fill="#c8b1a1" style="fill: var(--color1, #c8b1a1)" d="M20.667 15.867c-0.295 0-0.533-0.239-0.533-0.533s0.239-0.533 0.533-0.533c0.295 0 0.533 0.239 0.533 0.533s-0.239 0.533-0.533 0.533zM20.667 16c0.368 0 0.667-0.299 0.667-0.667s-0.298-0.667-0.667-0.667-0.667 0.299-0.667 0.667c0 0.368 0.299 0.667 0.667 0.667z"></path>
<path fill="#c8b1a1" style="fill: var(--color1, #c8b1a1)" d="M25 19h-2.333v-0.667h3v11.333h-3v-0.667h2.333v-10z"></path>
<path fill="#c8b1a1" style="fill: var(--color1, #c8b1a1)" d="M18 25.6c0.221 0 0.4 0.179 0.4 0.4s-0.179 0.4-0.4 0.4h-2.667c-0.221 0-0.4-0.179-0.4-0.4s0.179-0.4 0.4-0.4h2.667zM15.333 25.333c-0.368 0-0.667 0.298-0.667 0.667s0.298 0.667 0.667 0.667h2.667c0.368 0 0.667-0.298 0.667-0.667s-0.299-0.667-0.667-0.667h-2.667z"></path>
<path fill="#c8b1a1" style="fill: var(--color1, #c8b1a1)" d="M22.667 24h-12v-0.667h12v0.667z"></path>
<path fill="#c8b1a1" style="fill: var(--color1, #c8b1a1)" d="M18 20.267c0.221 0 0.4 0.179 0.4 0.4s-0.179 0.4-0.4 0.4h-2.667c-0.221 0-0.4-0.179-0.4-0.4s0.179-0.4 0.4-0.4h2.667zM15.333 20c-0.368 0-0.667 0.298-0.667 0.667s0.298 0.667 0.667 0.667h2.667c0.368 0 0.667-0.299 0.667-0.667s-0.299-0.667-0.667-0.667h-2.667z"></path>
<path fill="#c8b1a1" style="fill: var(--color1, #c8b1a1)" d="M22.667 18.667h-12v-0.667h12v0.667z"></path>
<path fill="#c8b1a1" style="fill: var(--color1, #c8b1a1)" d="M15.733 13.6v2.133h-3.467v-2.133h3.467zM12 13.333v2.667h4v-2.667h-4z"></path>
<path fill="#c8b1a1" style="fill: var(--color1, #c8b1a1)" d="M8 11.667h3v0.667h-2.333v16.667h2.333v0.667h-3v-18z"></path>
<path fill="#c8b1a1" style="fill: var(--color1, #c8b1a1)" d="M24.667 12.667h-2.333v-0.667h3v2h-2.667v-0.667h2v-0.667z"></path>
<path fill="#c8b1a1" style="fill: var(--color1, #c8b1a1)" d="M11 29v-16.667h-0.667v17.333h12.667v-17.333h-0.667v16.667h-11.333z"></path>
<path fill="#c8b1a1" style="fill: var(--color1, #c8b1a1)" d="M22 7.333v4h-10.667v-4h10.667zM10.667 6.667v5.333h12v-5.333h-12z"></path>
<path fill="#c8b1a1" style="fill: var(--color1, #c8b1a1)" d="M22 9.333h-10.667v-0.667h10.667v0.667z"></path>
<path fill="#c8b1a1" style="fill: var(--color1, #c8b1a1)" d="M11.667 4.875h6v1.667c0 0.184-0.149 0.333-0.333 0.333s-0.333-0.149-0.333-0.333v-1h-4.667v1c0 0.184-0.149 0.333-0.333 0.333s-0.333-0.149-0.333-0.333v-1.667z"></path>
<path fill="#c8b1a1" style="fill: var(--color1, #c8b1a1)" d="M5.457 15.558c0.078-0.078 0.205-0.078 0.283 0l2.384 2.384c0.078 0.078 0.078 0.205 0 0.283s-0.205 0.078-0.283 0l-2.384-2.384c-0.078-0.078-0.078-0.205 0-0.283z"></path>
<path fill="#c8b1a1" style="fill: var(--color1, #c8b1a1)" d="M5.422 19.522c0.078-0.078 0.205-0.078 0.283 0l2.384 2.384c0.078 0.078 0.078 0.205 0 0.283s-0.205 0.078-0.283 0l-2.384-2.384c-0.078-0.078-0.078-0.205 0-0.283z"></path>
</symbol>
<symbol id="offers-calculator" viewBox="0 0 32 32">
<path fill="#c8b1a1" style="fill: var(--color1, #c8b1a1)" d="M5.93 7.64c0-1.889 1.531-3.42 3.42-3.42h10.64c1.889 0 3.42 1.531 3.42 3.42v10.64c0 0.21-0.17 0.38-0.38 0.38s-0.38-0.17-0.38-0.38v-10.64c0-1.469-1.191-2.66-2.66-2.66h-10.64c-1.469 0-2.66 1.191-2.66 2.66v16.72c0 1.469 1.191 2.66 2.66 2.66h10.45c0.21 0 0.38 0.17 0.38 0.38s-0.17 0.38-0.38 0.38h-10.45c-1.889 0-3.42-1.531-3.42-3.42v-16.72z"></path>
<path fill="#c8b1a1" style="fill: var(--color1, #c8b1a1)" d="M19.23 8.096c0.168 0 0.304 0.136 0.304 0.304v1.52c0 0.168-0.136 0.304-0.304 0.304h-9.12c-0.168 0-0.304-0.136-0.304-0.304v-1.52c0-0.168 0.136-0.304 0.304-0.304h9.12zM10.11 7.64c-0.42 0-0.76 0.34-0.76 0.76v1.52c0 0.42 0.34 0.76 0.76 0.76h9.12c0.42 0 0.76-0.34 0.76-0.76v-1.52c0-0.42-0.34-0.76-0.76-0.76h-9.12z"></path>
<path fill="#c8b1a1" style="fill: var(--color1, #c8b1a1)" d="M10.718 12.352v1.216h-1.216v-1.216h1.216zM9.502 12.2c-0.084 0-0.152 0.068-0.152 0.152v1.216c0 0.084 0.068 0.152 0.152 0.152h1.216c0.084 0 0.152-0.068 0.152-0.152v-1.216c0-0.084-0.068-0.152-0.152-0.152h-1.216z"></path>
<path fill="#c8b1a1" style="fill: var(--color1, #c8b1a1)" d="M10.718 15.392v1.216h-1.216v-1.216h1.216zM9.502 15.24c-0.084 0-0.152 0.068-0.152 0.152v1.216c0 0.084 0.068 0.152 0.152 0.152h1.216c0.084 0 0.152-0.068 0.152-0.152v-1.216c0-0.084-0.068-0.152-0.152-0.152h-1.216z"></path>
<path fill="#c8b1a1" style="fill: var(--color1, #c8b1a1)" d="M10.718 18.432v1.216h-1.216v-1.216h1.216zM9.502 18.28c-0.084 0-0.152 0.068-0.152 0.152v1.216c0 0.084 0.068 0.152 0.152 0.152h1.216c0.084 0 0.152-0.068 0.152-0.152v-1.216c0-0.084-0.068-0.152-0.152-0.152h-1.216z"></path>
<path fill="#c8b1a1" style="fill: var(--color1, #c8b1a1)" d="M10.718 21.472v1.216h-1.216v-1.216h1.216zM9.502 21.32c-0.084 0-0.152 0.068-0.152 0.152v1.216c0 0.084 0.068 0.152 0.152 0.152h1.216c0.084 0 0.152-0.068 0.152-0.152v-1.216c0-0.084-0.068-0.152-0.152-0.152h-1.216z"></path>
<path fill="#c8b1a1" style="fill: var(--color1, #c8b1a1)" d="M13.758 12.352v1.216h-1.216v-1.216h1.216zM12.542 12.2c-0.084 0-0.152 0.068-0.152 0.152v1.216c0 0.084 0.068 0.152 0.152 0.152h1.216c0.084 0 0.152-0.068 0.152-0.152v-1.216c0-0.084-0.068-0.152-0.152-0.152h-1.216z"></path>
<path fill="#c8b1a1" style="fill: var(--color1, #c8b1a1)" d="M13.758 15.392v1.216h-1.216v-1.216h1.216zM12.542 15.24c-0.084 0-0.152 0.068-0.152 0.152v1.216c0 0.084 0.068 0.152 0.152 0.152h1.216c0.084 0 0.152-0.068 0.152-0.152v-1.216c0-0.084-0.068-0.152-0.152-0.152h-1.216z"></path>
<path fill="#c8b1a1" style="fill: var(--color1, #c8b1a1)" d="M13.758 18.432v1.216h-1.216v-1.216h1.216zM12.542 18.28c-0.084 0-0.152 0.068-0.152 0.152v1.216c0 0.084 0.068 0.152 0.152 0.152h1.216c0.084 0 0.152-0.068 0.152-0.152v-1.216c0-0.084-0.068-0.152-0.152-0.152h-1.216z"></path>
<path fill="#c8b1a1" style="fill: var(--color1, #c8b1a1)" d="M13.758 21.472v1.216h-1.216v-1.216h1.216zM12.542 21.32c-0.084 0-0.152 0.068-0.152 0.152v1.216c0 0.084 0.068 0.152 0.152 0.152h1.216c0.084 0 0.152-0.068 0.152-0.152v-1.216c0-0.084-0.068-0.152-0.152-0.152h-1.216z"></path>
<path fill="#c8b1a1" style="fill: var(--color1, #c8b1a1)" d="M16.798 12.352v1.216h-1.216v-1.216h1.216zM15.582 12.2c-0.084 0-0.152 0.068-0.152 0.152v1.216c0 0.084 0.068 0.152 0.152 0.152h1.216c0.084 0 0.152-0.068 0.152-0.152v-1.216c0-0.084-0.068-0.152-0.152-0.152h-1.216z"></path>
<path fill="#c8b1a1" style="fill: var(--color1, #c8b1a1)" d="M16.798 15.392v1.216h-1.216v-1.216h1.216zM15.582 15.24c-0.084 0-0.152 0.068-0.152 0.152v1.216c0 0.084 0.068 0.152 0.152 0.152h1.216c0.084 0 0.152-0.068 0.152-0.152v-1.216c0-0.084-0.068-0.152-0.152-0.152h-1.216z"></path>
<path fill="#c8b1a1" style="fill: var(--color1, #c8b1a1)" d="M16.798 18.432v1.216h-1.216v-1.216h1.216zM15.582 18.28c-0.084 0-0.152 0.068-0.152 0.152v1.216c0 0.084 0.068 0.152 0.152 0.152h1.216c0.084 0 0.152-0.068 0.152-0.152v-1.216c0-0.084-0.068-0.152-0.152-0.152h-1.216z"></path>
<path fill="#c8b1a1" style="fill: var(--color1, #c8b1a1)" d="M16.798 21.472v1.216h-1.216v-1.216h1.216zM15.582 21.32c-0.084 0-0.152 0.068-0.152 0.152v1.216c0 0.084 0.068 0.152 0.152 0.152h1.216c0.084 0 0.152-0.068 0.152-0.152v-1.216c0-0.084-0.068-0.152-0.152-0.152h-1.216z"></path>
<path fill="#c8b1a1" style="fill: var(--color1, #c8b1a1)" d="M19.838 12.352v1.216h-1.216v-1.216h1.216zM18.622 12.2c-0.084 0-0.152 0.068-0.152 0.152v1.216c0 0.084 0.068 0.152 0.152 0.152h1.216c0.084 0 0.152-0.068 0.152-0.152v-1.216c0-0.084-0.068-0.152-0.152-0.152h-1.216z"></path>
<path fill="#c8b1a1" style="fill: var(--color1, #c8b1a1)" d="M19.838 15.392v1.216h-1.216v-1.216h1.216zM18.622 15.24c-0.084 0-0.152 0.068-0.152 0.152v1.216c0 0.084 0.068 0.152 0.152 0.152h1.216c0.084 0 0.152-0.068 0.152-0.152v-1.216c0-0.084-0.068-0.152-0.152-0.152h-1.216z"></path>
<path fill="#c8b1a1" style="fill: var(--color1, #c8b1a1)" d="M21.51 26.944c-2.267 0-4.104-1.837-4.104-4.104s1.837-4.104 4.104-4.104c2.267 0 4.104 1.837 4.104 4.104s-1.837 4.104-4.104 4.104zM21.51 27.4c2.518 0 4.56-2.042 4.56-4.56s-2.042-4.56-4.56-4.56c-2.518 0-4.56 2.042-4.56 4.56s2.042 4.56 4.56 4.56z"></path>
<path fill="#c8b1a1" style="fill: var(--color1, #c8b1a1)" d="M21.51 25.424c-1.427 0-2.584-1.157-2.584-2.584s1.157-2.584 2.584-2.584c1.427 0 2.584 1.157 2.584 2.584s-1.157 2.584-2.584 2.584zM21.51 25.88c1.679 0 3.040-1.361 3.040-3.040s-1.361-3.040-3.040-3.040c-1.679 0-3.040 1.361-3.040 3.040s1.361 3.040 3.040 3.040z"></path>
<path fill="#c8b1a1" style="fill: var(--color1, #c8b1a1)" d="M21.476 20.907c0.287-0.064 0.609 0.007 0.924 0.225 0.103 0.072 0.129 0.214 0.057 0.317s-0.214 0.129-0.317 0.057c-0.232-0.161-0.426-0.186-0.564-0.155-0.14 0.031-0.252 0.124-0.314 0.256-0.118 0.248-0.071 0.698 0.526 1.033 0.357 0.2 0.565 0.461 0.651 0.757 0.084 0.289 0.043 0.58-0.041 0.832-0.132 0.396-0.456 0.603-0.808 0.639-0.342 0.035-0.714-0.088-0.993-0.34-0.094-0.084-0.101-0.228-0.017-0.322s0.228-0.101 0.322-0.017c0.189 0.171 0.434 0.246 0.641 0.225 0.198-0.020 0.354-0.126 0.422-0.329 0.066-0.2 0.085-0.391 0.036-0.561-0.047-0.163-0.167-0.335-0.437-0.487-0.756-0.425-0.959-1.115-0.715-1.627 0.119-0.249 0.341-0.441 0.626-0.504z"></path>
<path fill="#c8b1a1" style="fill: var(--color1, #c8b1a1)" d="M21.51 20.555c0.042 0 0.076 0.034 0.076 0.076v4.489c0 0.042-0.034 0.076-0.076 0.076s-0.076-0.034-0.076-0.076v-4.489c0-0.042 0.034-0.076 0.076-0.076z"></path>
</symbol>
<symbol id="offers-car" viewBox="0 0 32 32">
<path fill="#c8b1a1" style="fill: var(--color1, #c8b1a1)" d="M22.333 25.74c-1.105 0-2-0.918-2-2.051s0.895-2.051 2-2.051c1.105 0 2 0.918 2 2.051s-0.895 2.051-2 2.051zM22.333 26.424c1.473 0 2.667-1.224 2.667-2.734s-1.194-2.734-2.667-2.734-2.667 1.224-2.667 2.734c0 1.51 1.194 2.734 2.667 2.734z"></path>
<path fill="#c8b1a1" style="fill: var(--color1, #c8b1a1)" d="M10.333 25.74c-1.105 0-2-0.918-2-2.051s0.895-2.051 2-2.051c1.105 0 2 0.918 2 2.051s-0.895 2.051-2 2.051zM10.333 26.424c1.473 0 2.667-1.224 2.667-2.734s-1.194-2.734-2.667-2.734-2.667 1.224-2.667 2.734c0 1.51 1.194 2.734 2.667 2.734z"></path>
<path fill="#c8b1a1" style="fill: var(--color1, #c8b1a1)" d="M12 5.576h15.333v17.772h-2.333l-0.188-0.684h1.854v-16.405h-14v4.101h-1.267c-1.13 0-2.098 0.831-2.297 1.972l-0.467 2.684-2.169 1.334c-0.703 0.432-1.133 1.211-1.133 2.051v3.237c0 0.566 0.448 1.025 1 1.025h1.521l-0.188 0.684h-1.333c-0.92 0-1.667-0.765-1.667-1.709v-3.237c0-1.080 0.553-2.082 1.457-2.638l1.909-1.174 0.414-2.378c0.255-1.467 1.5-2.535 2.953-2.535h0.601v-4.101z"></path>
<path fill="#c8b1a1" style="fill: var(--color1, #c8b1a1)" d="M19.667 23.348h-6.667l-0.167-0.684h7.021l-0.188 0.684z"></path>
<path fill="#c8b1a1" style="fill: var(--color1, #c8b1a1)" d="M19 9.677c0.184 0 0.333 0.153 0.333 0.342v3.559l-2.098 2.151c-0.13 0.133-0.341 0.133-0.471 0s-0.13-0.35 0-0.483l1.902-1.951v-3.276c0-0.189 0.149-0.342 0.333-0.342z"></path>
<path fill="#c8b1a1" style="fill: var(--color1, #c8b1a1)" d="M12 15.541v-5.169h0.667v5.169h-0.667z"></path>
<path fill="#c8b1a1" style="fill: var(--color1, #c8b1a1)" d="M19 17.538c-2.209 0-4-1.836-4-4.101s1.791-4.101 4-4.101c2.209 0 4 1.836 4 4.101s-1.791 4.101-4 4.101zM19 18.221c2.577 0 4.667-2.142 4.667-4.785s-2.089-4.785-4.667-4.785c-2.577 0-4.667 2.142-4.667 4.785s2.089 4.785 4.667 4.785z"></path>
</symbol>

<symbol id="wors-diary" viewBox="0 0 32 32">
<path fill="#2f3458" style="fill: var(--color1, #2f3458)" d="M21.333 6c1.105 0 2 0.895 2 2v17.333c0 1.105-0.895 2-2 2h-13.333c-0.368 0-0.667-0.298-0.667-0.667v-20c0-0.368 0.298-0.667 0.667-0.667h13.333zM8 5.333c-0.736 0-1.333 0.597-1.333 1.333v20c0 0.736 0.597 1.333 1.333 1.333h13.333c1.473 0 2.667-1.194 2.667-2.667v-17.333c0-1.473-1.194-2.667-2.667-2.667h-13.333z"></path>
<path fill="#2f3458" style="fill: var(--color1, #2f3458)" d="M8 28v-22.667h0.667v22.667h-0.667z"></path>
<path fill="#2f3458" style="fill: var(--color1, #2f3458)" d="M10.667 10.333c0-0.184 0.149-0.333 0.333-0.333h4.667c0.184 0 0.333 0.149 0.333 0.333s-0.149 0.333-0.333 0.333h-4.667c-0.184 0-0.333-0.149-0.333-0.333z"></path>
<path fill="#2f3458" style="fill: var(--color1, #2f3458)" d="M10.667 11.667c0-0.184 0.149-0.333 0.333-0.333h4.667c0.184 0 0.333 0.149 0.333 0.333s-0.149 0.333-0.333 0.333h-4.667c-0.184 0-0.333-0.149-0.333-0.333z"></path>
<path fill="#2f3458" style="fill: var(--color1, #2f3458)" d="M10.667 13c0-0.184 0.149-0.333 0.333-0.333h4.667c0.184 0 0.333 0.149 0.333 0.333s-0.149 0.333-0.333 0.333h-4.667c-0.184 0-0.333-0.149-0.333-0.333z"></path>
<path fill="#2f3458" style="fill: var(--color1, #2f3458)" d="M21.333 9.333l-1.333-2-1.333 2v-4h2.667v4zM19.333 7.131l0.667-1 0.667 1v-1.131h-1.333v1.131z"></path>
<path fill="#2f3458" style="fill: var(--color1, #2f3458)" d="M22.667 15.333c0.368 0 0.667 0.298 0.667 0.667s-0.298 0.667-0.667 0.667h-3.333v-1.333h3.333zM18.667 14.667v2.667h4c0.736 0 1.333-0.597 1.333-1.333s-0.597-1.333-1.333-1.333h-4z"></path>
<path fill="#2f3458" style="fill: var(--color1, #2f3458)" d="M22.667 16c0 0.184-0.149 0.333-0.333 0.333s-0.333-0.149-0.333-0.333 0.149-0.333 0.333-0.333c0.184 0 0.333 0.149 0.333 0.333z"></path>
</symbol>
<symbol id="works-notebook" viewBox="0 0 32 32">
<path fill="#2f3458" style="fill: var(--color1, #2f3458)" d="M22.667 6.133c0.295 0 0.533 0.239 0.533 0.533v20c0 0.295-0.239 0.533-0.533 0.533h-14.667c-0.295 0-0.533-0.239-0.533-0.533v-20c0-0.295 0.239-0.533 0.533-0.533h14.667zM8 5.333c-0.736 0-1.333 0.597-1.333 1.333v20c0 0.736 0.597 1.333 1.333 1.333h14.667c0.736 0 1.333-0.597 1.333-1.333v-20c0-0.736-0.597-1.333-1.333-1.333h-14.667z"></path>
<path fill="#2f3458" style="fill: var(--color1, #2f3458)" d="M10.667 10.267c-0.515 0-0.933-0.418-0.933-0.933s0.418-0.933 0.933-0.933 0.933 0.418 0.933 0.933c0 0.515-0.418 0.933-0.933 0.933zM10.667 10.667c0.736 0 1.333-0.597 1.333-1.333s-0.597-1.333-1.333-1.333c-0.736 0-1.333 0.597-1.333 1.333s0.597 1.333 1.333 1.333z"></path>
<path fill="#2f3458" style="fill: var(--color1, #2f3458)" d="M10.667 15.6c-0.515 0-0.933-0.418-0.933-0.933s0.418-0.933 0.933-0.933 0.933 0.418 0.933 0.933c0 0.515-0.418 0.933-0.933 0.933zM10.667 16c0.736 0 1.333-0.597 1.333-1.333s-0.597-1.333-1.333-1.333c-0.736 0-1.333 0.597-1.333 1.333s0.597 1.333 1.333 1.333z"></path>
<path fill="#2f3458" style="fill: var(--color1, #2f3458)" d="M10.667 20.933c-0.515 0-0.933-0.418-0.933-0.933s0.418-0.933 0.933-0.933c0.515 0 0.933 0.418 0.933 0.933s-0.418 0.933-0.933 0.933zM10.667 21.333c0.736 0 1.333-0.597 1.333-1.333s-0.597-1.333-1.333-1.333c-0.736 0-1.333 0.597-1.333 1.333s0.597 1.333 1.333 1.333z"></path>
<path fill="#2f3458" style="fill: var(--color1, #2f3458)" d="M10.667 26.267c-0.515 0-0.933-0.418-0.933-0.933s0.418-0.933 0.933-0.933 0.933 0.418 0.933 0.933c0 0.515-0.418 0.933-0.933 0.933zM10.667 26.667c0.736 0 1.333-0.597 1.333-1.333s-0.597-1.333-1.333-1.333c-0.736 0-1.333 0.597-1.333 1.333s0.597 1.333 1.333 1.333z"></path>
<path fill="#2f3458" style="fill: var(--color1, #2f3458)" d="M5.197 10.007c-0.012-0.596 0.588-1.007 1.241-1.007h4c0.184 0 0.333 0.149 0.333 0.333s-0.149 0.333-0.333 0.333h-4c0 0 0 0 0 0-0.452 0-0.576 0.256-0.575 0.327 0.001 0.029 0.014 0.1 0.146 0.179 0.14 0.083 0.397 0.161 0.824 0.161 0.184 0 0.333 0.149 0.333 0.333s-0.149 0.333-0.333 0.333c-0.495 0-0.885-0.089-1.165-0.255-0.287-0.171-0.465-0.433-0.471-0.738z"></path>
<path fill="#2f3458" style="fill: var(--color1, #2f3458)" d="M5 15.34c-0.012-0.596 0.588-1.007 1.241-1.007h4c0.184 0 0.333 0.149 0.333 0.333s-0.149 0.333-0.333 0.333h-4c0 0 0 0 0 0-0.452 0-0.576 0.256-0.575 0.327 0.001 0.029 0.013 0.1 0.146 0.179 0.14 0.083 0.397 0.161 0.824 0.161 0.184 0 0.333 0.149 0.333 0.333s-0.149 0.333-0.333 0.333c-0.495 0-0.885-0.089-1.165-0.255-0.287-0.171-0.465-0.433-0.471-0.738z"></path>
<path fill="#2f3458" style="fill: var(--color1, #2f3458)" d="M5 20.673c-0.012-0.596 0.588-1.007 1.241-1.007h4c0.184 0 0.333 0.149 0.333 0.333s-0.149 0.333-0.333 0.333h-4c0 0 0 0 0 0-0.452 0-0.576 0.256-0.575 0.327 0.001 0.029 0.013 0.1 0.146 0.179 0.14 0.083 0.397 0.161 0.824 0.161 0.184 0 0.333 0.149 0.333 0.333s-0.149 0.333-0.333 0.333c-0.495 0-0.885-0.089-1.165-0.255-0.287-0.171-0.465-0.433-0.471-0.738z"></path>
<path fill="#2f3458" style="fill: var(--color1, #2f3458)" d="M5 26.007c-0.012-0.596 0.588-1.007 1.241-1.007h4c0.184 0 0.333 0.149 0.333 0.333s-0.149 0.333-0.333 0.333h-4c0 0 0 0 0 0-0.452 0-0.576 0.256-0.575 0.327 0.001 0.029 0.013 0.1 0.146 0.179 0.14 0.083 0.397 0.161 0.824 0.161 0.184 0 0.333 0.149 0.333 0.333s-0.149 0.333-0.333 0.333c-0.495 0-0.885-0.089-1.165-0.255-0.287-0.171-0.465-0.433-0.471-0.738z"></path>
</symbol>
<symbol id="works-calendar" viewBox="0 0 32 32">
<path fill="#2f3458" style="fill: var(--color1, #2f3458)" d="M5 8c0-0.92 0.746-1.667 1.667-1.667h18.667c0.92 0 1.667 0.746 1.667 1.667v18.667c0 0.92-0.746 1.667-1.667 1.667h-18.667c-0.92 0-1.667-0.746-1.667-1.667v-3.5h0.667v3.5c0 0.552 0.448 1 1 1h18.667c0.552 0 1-0.448 1-1v-18.667c0-0.552-0.448-1-1-1h-18.667c-0.552 0-1 0.448-1 1v3.333h-0.667v-3.333z"></path>
<path fill="#2f3458" style="fill: var(--color1, #2f3458)" d="M4.958 11.333h21.709v0.333c0 2.584-0.842 5.090-1.887 7.169s-2.303 3.755-3.164 4.683c-0.092 0.099-0.217 0.148-0.34 0.148h-18.241c-0.45 0-0.613-0.543-0.324-0.82 1.373-1.313 2.038-3.401 2.309-5.545 0.27-2.134 0.142-4.264-0.018-5.595l-0.045-0.373zM5.706 12c0.142 1.371 0.231 3.371-0.024 5.385-0.258 2.038-0.873 4.145-2.192 5.615h17.697c0.817-0.896 2.005-2.489 2.997-4.463 0.97-1.932 1.743-4.208 1.811-6.537h-20.289z"></path>
<path fill="#2f3458" style="fill: var(--color1, #2f3458)" d="M10.667 4.667c0-0.368 0.298-0.667 0.667-0.667s0.667 0.298 0.667 0.667v4c0 0.368-0.298 0.667-0.667 0.667s-0.667-0.298-0.667-0.667v-4z"></path>
<path fill="#2f3458" style="fill: var(--color1, #2f3458)" d="M16 4.667c0-0.368 0.298-0.667 0.667-0.667s0.667 0.298 0.667 0.667v4c0 0.368-0.298 0.667-0.667 0.667s-0.667-0.298-0.667-0.667v-4z"></path>
<path fill="#2f3458" style="fill: var(--color1, #2f3458)" d="M21.333 4.667c0-0.368 0.298-0.667 0.667-0.667s0.667 0.298 0.667 0.667v4c0 0.368-0.298 0.667-0.667 0.667s-0.667-0.298-0.667-0.667v-4z"></path>
</symbol>
<symbol id="works-book" viewBox="0 0 32 32">
<path fill="#2f3458" style="fill: var(--color1, #2f3458)" d="M23.2 6.133v19.733h-13.867c-1.031 0-1.867-0.836-1.867-1.867v-16c0-1.031 0.836-1.867 1.867-1.867h13.867zM9.333 5.333c-1.473 0-2.667 1.194-2.667 2.667v16c0 1.473 1.194 2.667 2.667 2.667h14.667v-21.333h-14.667z"></path>
<path fill="#2f3458" style="fill: var(--color1, #2f3458)" d="M9.333 5.667c0.184 0 0.333 0.149 0.333 0.333v15.667h13.667c0.184 0 0.333 0.149 0.333 0.333s-0.149 0.333-0.333 0.333h-13.987c-0.191 0-0.347-0.155-0.347-0.347v-15.987c0-0.184 0.149-0.333 0.333-0.333z"></path>
<path fill="#2f3458" style="fill: var(--color1, #2f3458)" d="M12.667 10h6.667v1.333h-6.667v-1.333zM12.267 9.333c-0.147 0-0.267 0.119-0.267 0.267v2.133c0 0.147 0.119 0.267 0.267 0.267h7.467c0.147 0 0.267-0.119 0.267-0.267v-2.133c0-0.147-0.119-0.267-0.267-0.267h-7.467z"></path>
<path fill="#2f3458" style="fill: var(--color1, #2f3458)" d="M9.6 21.8c0.11 0.147 0.081 0.356-0.067 0.467-0.387 0.29-0.834 0.888-0.956 1.544-0.059 0.321-0.040 0.649 0.094 0.966s0.392 0.643 0.847 0.946c0.153 0.102 0.195 0.309 0.092 0.462s-0.309 0.195-0.462 0.092c-0.545-0.363-0.898-0.786-1.091-1.241s-0.215-0.918-0.135-1.347c0.156-0.844 0.709-1.58 1.211-1.956 0.147-0.11 0.356-0.081 0.467 0.067z"></path>
<path fill="#2f3458" style="fill: var(--color1, #2f3458)" d="M12 23.733l12-0v0.667l-12 0v-0.667z"></path>
</symbol>
<symbol id="works-brochure" viewBox="0 0 32 32">
<path fill="#2f3458" style="fill: var(--color1, #2f3458)" d="M20.89 12.105c0.178-0.354 0.688-0.339 0.845 0.024l1.076 2.488 0.924-0.496c0.212-0.114 0.475-0.048 0.609 0.152l1.128 1.692c0.207 0.31-0.016 0.726-0.388 0.726h-5.743c-0.347 0-0.573-0.366-0.417-0.676l1.966-3.911zM21.293 12.787l-1.628 3.238h5.045l-0.82-1.23-0.956 0.513c-0.241 0.129-0.54 0.025-0.649-0.226l-0.993-2.295z"></path>
<path fill="#2f3458" style="fill: var(--color1, #2f3458)" d="M12.236 9.178l0.185 0.691 1.859-0.241 2.099 13.992-10.153 1.329-0.463 0.132-3.505-13.319 9.977-2.583zM10.569 23.708l5.051-0.661-0.112-0.75-4.938 1.411zM15.19 20.18l-1.471-9.808-1.123 0.146 2.594 9.662zM6.391 24.208l8.535-2.439-3.163-11.781-8.685 2.249 3.313 11.97z"></path>
<path fill="#2f3458" style="fill: var(--color1, #2f3458)" d="M24 13.483c-0.221 0-0.4-0.179-0.4-0.4s0.179-0.4 0.4-0.4c0.221 0 0.4 0.179 0.4 0.4s-0.179 0.4-0.4 0.4zM24 13.75c0.368 0 0.667-0.298 0.667-0.667s-0.298-0.667-0.667-0.667c-0.368 0-0.667 0.298-0.667 0.667s0.298 0.667 0.667 0.667z"></path>
<path fill="#2f3458" style="fill: var(--color1, #2f3458)" d="M6.333 7.667h9.667c0.92 0 1.667 0.746 1.667 1.667v11.667h-2.333v-0.667h1.667v-11c0-0.552-0.448-1-1-1h-9v2.667h-0.667v-3.333z"></path>
<path fill="#2f3458" style="fill: var(--color1, #2f3458)" d="M27.042 8.333v12h-9.333v-11.333c0-0.368 0.298-0.667 0.667-0.667h8.667zM18.375 7.667c-0.736 0-1.333 0.597-1.333 1.333v11.733c0 0.147 0.119 0.267 0.267 0.267h10.4v-13.333h-9.333z"></path>
<path fill="#2f3458" style="fill: var(--color1, #2f3458)" d="M5.677 15.414c-0.045-0.179 0.064-0.36 0.243-0.404l4.687-1.172c0.179-0.045 0.36 0.064 0.404 0.243s-0.064 0.36-0.243 0.404l-4.687 1.172c-0.179 0.045-0.36-0.064-0.404-0.243z"></path>
<path fill="#2f3458" style="fill: var(--color1, #2f3458)" d="M6.343 17.414c0.045 0.179 0.226 0.287 0.404 0.243l4.687-1.172c0.179-0.045 0.287-0.226 0.243-0.404s-0.226-0.287-0.404-0.243l-4.687 1.172c-0.179 0.045-0.287 0.226-0.243 0.404zM6.99 19.253c0.045 0.179 0.226 0.287 0.404 0.243l4.687-1.172c0.179-0.045 0.287-0.226 0.243-0.404s-0.226-0.287-0.404-0.243l-4.687 1.172c-0.179 0.045-0.287 0.226-0.243 0.404z"></path>
</symbol>
<symbol id="works-blank" viewBox="0 0 32 32">
<path fill="#2f3458" style="fill: var(--color1, #2f3458)" d="M22.667 8.372c0.368 0 0.667 0.298 0.667 0.667v16c0 0.368-0.298 0.667-0.667 0.667h-13.333c-0.368 0-0.667-0.298-0.667-0.667v-16c0-0.368 0.298-0.667 0.667-0.667h13.333zM9.333 7.705c-0.736 0-1.333 0.597-1.333 1.333v16c0 0.736 0.597 1.333 1.333 1.333h13.333c0.736 0 1.333-0.597 1.333-1.333v-16c0-0.736-0.597-1.333-1.333-1.333h-13.333z"></path>
<path fill="#2f3458" style="fill: var(--color1, #2f3458)" d="M15.533 10.772c0.147 0.11 0.177 0.319 0.067 0.467l-2.231 2.974-1.605-1.605c-0.13-0.13-0.13-0.341 0-0.471s0.341-0.13 0.471 0l1.062 1.062 1.769-2.359c0.11-0.147 0.319-0.177 0.467-0.067z"></path>
<path fill="#2f3458" style="fill: var(--color1, #2f3458)" d="M15.533 18.105c0.147 0.11 0.177 0.319 0.067 0.467l-2.231 2.974-1.605-1.605c-0.13-0.13-0.13-0.341 0-0.471s0.341-0.13 0.471 0l1.062 1.062 1.769-2.359c0.11-0.147 0.319-0.177 0.467-0.067z"></path>
<path fill="#2f3458" style="fill: var(--color1, #2f3458)" d="M16 12.705c0-0.184 0.149-0.333 0.333-0.333h4.667c0.184 0 0.333 0.149 0.333 0.333s-0.149 0.333-0.333 0.333h-4.667c-0.184 0-0.333-0.149-0.333-0.333z"></path>
<path fill="#2f3458" style="fill: var(--color1, #2f3458)" d="M16 20.039c0-0.184 0.149-0.333 0.333-0.333h4.667c0.184 0 0.333 0.149 0.333 0.333s-0.149 0.333-0.333 0.333h-4.667c-0.184 0-0.333-0.149-0.333-0.333z"></path>
<path fill="#2f3458" style="fill: var(--color1, #2f3458)" d="M10.667 15.372c0-0.184 0.149-0.333 0.333-0.333h10c0.184 0 0.333 0.149 0.333 0.333s-0.149 0.333-0.333 0.333h-10c-0.184 0-0.333-0.149-0.333-0.333z"></path>
<path fill="#2f3458" style="fill: var(--color1, #2f3458)" d="M10.667 22.705c0-0.184 0.149-0.333 0.333-0.333h10c0.184 0 0.333 0.149 0.333 0.333s-0.149 0.333-0.333 0.333h-10c-0.184 0-0.333-0.149-0.333-0.333z"></path>
<path fill="#2f3458" style="fill: var(--color1, #2f3458)" d="M15.246 5.84c-0.172 0.103-0.246 0.228-0.246 0.377v0.333l-1.333-0v1.155h-0.667v-1.222c0-0.331 0.269-0.6 0.6-0.6h0.786c0.090-0.271 0.286-0.476 0.517-0.615 0.31-0.186 0.701-0.268 1.074-0.268s0.766 0.082 1.081 0.266c0.238 0.138 0.444 0.344 0.544 0.617h0.798c0.331 0 0.6 0.269 0.6 0.6v1.222h-0.667v-1.155l-1.316 0-0.017-0.316c-0.008-0.153-0.094-0.285-0.278-0.392-0.19-0.111-0.46-0.176-0.746-0.176s-0.55 0.065-0.73 0.173z"></path>
</symbol>
<symbol id="works-postcard" viewBox="0 0 32 32">
<path fill="#2f3458" style="fill: var(--color1, #2f3458)" d="M24 8c0.368 0 0.667 0.298 0.667 0.667v18.667c0 0.368-0.298 0.667-0.667 0.667h-16c-0.368 0-0.667-0.298-0.667-0.667v-18.667c0-0.368 0.298-0.667 0.667-0.667h16zM8 7.333c-0.736 0-1.333 0.597-1.333 1.333v18.667c0 0.736 0.597 1.333 1.333 1.333h16c0.736 0 1.333-0.597 1.333-1.333v-18.667c0-0.736-0.597-1.333-1.333-1.333h-16z"></path>
<path fill="#2f3458" style="fill: var(--color1, #2f3458)" d="M21.748 3.721c0.296-0.077 0.585 0.146 0.585 0.451v3.161h-0.667v-2.901l-13.582 3.557-0.169-0.645 13.833-3.623z"></path>
<path fill="#2f3458" style="fill: var(--color1, #2f3458)" d="M12 23c0-0.184 0.149-0.333 0.333-0.333h7.333c0.184 0 0.333 0.149 0.333 0.333s-0.149 0.333-0.333 0.333h-7.333c-0.184 0-0.333-0.149-0.333-0.333z"></path>
<path fill="#2f3458" style="fill: var(--color1, #2f3458)" d="M17.548 15.486c-0.267 0.356-0.585 0.514-0.881 0.514s-0.614-0.158-0.881-0.514c-0.267-0.356-0.452-0.88-0.452-1.486s0.185-1.129 0.452-1.486c0.267-0.356 0.585-0.514 0.881-0.514s0.614 0.158 0.881 0.514c0.267 0.357 0.452 0.88 0.452 1.486s-0.185 1.129-0.452 1.486zM16.667 16.667c1.105 0 2-1.194 2-2.667s-0.895-2.667-2-2.667c-1.105 0-2 1.194-2 2.667s0.895 2.667 2 2.667z"></path>
<path fill="#2f3458" style="fill: var(--color1, #2f3458)" d="M16.8 17.2v0.133c0 0.124 0.063 0.263 0.174 0.424 0.054 0.079 0.117 0.159 0.183 0.242 0.013 0.016 0.026 0.033 0.039 0.049 0.053 0.067 0.108 0.136 0.16 0.204 0.126 0.168 0.247 0.356 0.285 0.555 0.040 0.213-0.019 0.424-0.214 0.619-0.623 0.623-0.628 1.567-0.628 1.906 0 0.074-0.060 0.133-0.133 0.133s-0.133-0.060-0.133-0.133v-0.006c-0-0.335-0-1.382 0.706-2.088 0.138-0.138 0.163-0.261 0.14-0.381-0.025-0.134-0.112-0.279-0.236-0.445-0.049-0.065-0.1-0.129-0.153-0.196-0.013-0.017-0.027-0.034-0.041-0.051-0.067-0.084-0.134-0.17-0.194-0.258-0.118-0.172-0.221-0.367-0.221-0.576v-0.133h0.267z"></path>
<path fill="#2f3458" style="fill: var(--color1, #2f3458)" d="M16.724 16.373l0.577 1-1.155-0.001 0.578-0.999z"></path>
</symbol>
<symbol id="works-invitation" viewBox="0 0 32 32">
<path fill="#2f3458" style="fill: var(--color1, #2f3458)" d="M7.667 6c0-0.552 0.448-1 1-1h14.667c0.552 0 1 0.448 1 1v11.083h-0.667v-11.083c0-0.184-0.149-0.333-0.333-0.333h-14.667c-0.184 0-0.333 0.149-0.333 0.333v10.875h-0.667v-10.875z"></path>
<path fill="#2f3458" style="fill: var(--color1, #2f3458)" d="M14.061 5.75l0.55 0.059-6.202 5.391-0.007-0.56 5.659-4.89zM13.931 5.333l-5.931 5.125 0.019 1.61 7.547-6.561-1.636-0.174z"></path>
<path fill="#2f3458" style="fill: var(--color1, #2f3458)" d="M12 10.333c0-0.184 0.149-0.333 0.333-0.333h4.667c0.184 0 0.333 0.149 0.333 0.333s-0.149 0.333-0.333 0.333h-4.667c-0.184 0-0.333-0.149-0.333-0.333z"></path>
<path fill="#2f3458" style="fill: var(--color1, #2f3458)" d="M12 13c0-0.184 0.149-0.333 0.333-0.333h7.333c0.184 0 0.333 0.149 0.333 0.333s-0.149 0.333-0.333 0.333h-7.333c-0.184 0-0.333-0.149-0.333-0.333z"></path>
<path fill="#2f3458" style="fill: var(--color1, #2f3458)" d="M12 15.667c0-0.184 0.149-0.333 0.333-0.333h7.333c0.184 0 0.333 0.149 0.333 0.333s-0.149 0.333-0.333 0.333h-7.333c-0.184 0-0.333-0.149-0.333-0.333z"></path>
<path fill="#2f3458" style="fill: var(--color1, #2f3458)" d="M8.236 14.431c0.13 0.13 0.13 0.341 0 0.471l-1.058 1.058 6.83 4.967 1.437-0.958c0.336-0.224 0.773-0.224 1.109 0l1.437 0.958 6.83-4.967-1.057-1.058c-0.13-0.13-0.13-0.341 0-0.471s0.341-0.13 0.471 0l1.431 1.431v12.125c0 0.191-0.155 0.347-0.347 0.347h-18.64c-0.191 0-0.347-0.155-0.347-0.347v-12.125l1.431-1.431c0.13-0.13 0.341-0.13 0.471 0zM25 16.655l-6.992 5.085-1.823-1.216c-0.112-0.075-0.258-0.075-0.37 0l-1.823 1.216-6.992-5.085v11.012h18v-11.012z"></path>
<path fill="#2f3458" style="fill: var(--color1, #2f3458)" d="M14.247 21.109c0.124 0.136 0.114 0.347-0.022 0.471l-7.333 6.667c-0.136 0.124-0.347 0.114-0.471-0.022s-0.114-0.347 0.022-0.471l7.333-6.667c0.136-0.124 0.347-0.114 0.471 0.022z"></path>
<path fill="#2f3458" style="fill: var(--color1, #2f3458)" d="M17.753 21.109c-0.124 0.136-0.114 0.347 0.022 0.471l7.333 6.667c0.136 0.124 0.347 0.114 0.471-0.022s0.114-0.347-0.022-0.471l-7.333-6.667c-0.136-0.124-0.347-0.114-0.471 0.022z"></path>
</symbol>
<symbol id="works-diploma" viewBox="0 0 32 32">
<path fill="#2f3458" style="fill: var(--color1, #2f3458)" d="M12 9c0-0.184 0.149-0.333 0.333-0.333h7.333c0.184 0 0.333 0.149 0.333 0.333s-0.149 0.333-0.333 0.333h-7.333c-0.184 0-0.333-0.149-0.333-0.333z"></path>
<path fill="#2f3458" style="fill: var(--color1, #2f3458)" d="M13.333 11.667c0-0.184 0.149-0.333 0.333-0.333h4.667c0.184 0 0.333 0.149 0.333 0.333s-0.149 0.333-0.333 0.333h-4.667c-0.184 0-0.333-0.149-0.333-0.333z"></path>
<path fill="#2f3458" style="fill: var(--color1, #2f3458)" d="M23.333 6v21.333h-14.667v-21.333h14.667zM8.667 5.333c-0.368 0-0.667 0.298-0.667 0.667v21.333c0 0.368 0.298 0.667 0.667 0.667h14.667c0.368 0 0.667-0.298 0.667-0.667v-21.333c0-0.368-0.298-0.667-0.667-0.667h-14.667z"></path>
<path fill="#2f3458" style="fill: var(--color1, #2f3458)" d="M16.845 21.267l-0.845-1.267-0.845 1.267c-0.146 0.22-0.489 0.116-0.489-0.148v-3.119l1.247 0.429c0.056 0.019 0.117 0.019 0.173 0l1.247-0.429v3.119c0 0.264-0.342 0.367-0.489 0.148zM15.333 19.798l0.473-0.709c-0.037-0.008-0.073-0.018-0.109-0.030l-0.363-0.125v0.864zM16.194 19.089l0.473 0.709v-0.864l-0.363 0.125c-0.036 0.012-0.072 0.022-0.109 0.030z"></path>
<path fill="#2f3458" style="fill: var(--color1, #2f3458)" d="M16 18c-1.105 0-2-0.895-2-2s0.895-2 2-2c1.105 0 2 0.895 2 2s-0.895 2-2 2zM16 18.667c1.473 0 2.667-1.194 2.667-2.667s-1.194-2.667-2.667-2.667c-1.473 0-2.667 1.194-2.667 2.667s1.194 2.667 2.667 2.667z"></path>
</symbol>
<symbol id="works-folders" viewBox="0 0 32 32">
<path fill="#2f3458" style="fill: var(--color1, #2f3458)" d="M9.333 6c0.368 0 0.667 0.298 0.667 0.667v18.667c0 0.368-0.298 0.667-0.667 0.667h-2.667c-0.368 0-0.667-0.298-0.667-0.667v-18.667c0-0.368 0.298-0.667 0.667-0.667h2.667zM6.667 5.333c-0.736 0-1.333 0.597-1.333 1.333v18.667c0 0.736 0.597 1.333 1.333 1.333h2.667c0.736 0 1.333-0.597 1.333-1.333v-18.667c0-0.736-0.597-1.333-1.333-1.333h-2.667z"></path>
<path fill="#2f3458" style="fill: var(--color1, #2f3458)" d="M17.333 6c0.368 0 0.667 0.298 0.667 0.667v18.667c0 0.368-0.298 0.667-0.667 0.667h-2.667c-0.368 0-0.667-0.298-0.667-0.667v-18.667c0-0.368 0.298-0.667 0.667-0.667h2.667zM14.667 5.333c-0.736 0-1.333 0.597-1.333 1.333v18.667c0 0.736 0.597 1.333 1.333 1.333h2.667c0.736 0 1.333-0.597 1.333-1.333v-18.667c0-0.736-0.597-1.333-1.333-1.333h-2.667z"></path>
<path fill="#2f3458" style="fill: var(--color1, #2f3458)" d="M25.333 6c0.368 0 0.667 0.298 0.667 0.667v18.667c0 0.368-0.298 0.667-0.667 0.667h-2.667c-0.368 0-0.667-0.298-0.667-0.667v-18.667c0-0.368 0.298-0.667 0.667-0.667h2.667zM22.667 5.333c-0.736 0-1.333 0.597-1.333 1.333v18.667c0 0.736 0.597 1.333 1.333 1.333h2.667c0.736 0 1.333-0.597 1.333-1.333v-18.667c0-0.736-0.597-1.333-1.333-1.333h-2.667z"></path>
<path fill="#2f3458" style="fill: var(--color1, #2f3458)" d="M8 23.733c-0.221 0-0.4-0.179-0.4-0.4s0.179-0.4 0.4-0.4c0.221 0 0.4 0.179 0.4 0.4s-0.179 0.4-0.4 0.4zM8 24c0.368 0 0.667-0.298 0.667-0.667s-0.298-0.667-0.667-0.667c-0.368 0-0.667 0.298-0.667 0.667s0.298 0.667 0.667 0.667z"></path>
<path fill="#2f3458" style="fill: var(--color1, #2f3458)" d="M16 23.733c-0.221 0-0.4-0.179-0.4-0.4s0.179-0.4 0.4-0.4c0.221 0 0.4 0.179 0.4 0.4s-0.179 0.4-0.4 0.4zM16 24c0.368 0 0.667-0.298 0.667-0.667s-0.298-0.667-0.667-0.667c-0.368 0-0.667 0.298-0.667 0.667s0.298 0.667 0.667 0.667z"></path>
<path fill="#2f3458" style="fill: var(--color1, #2f3458)" d="M24 23.733c-0.221 0-0.4-0.179-0.4-0.4s0.179-0.4 0.4-0.4c0.221 0 0.4 0.179 0.4 0.4s-0.179 0.4-0.4 0.4zM24 24c0.368 0 0.667-0.298 0.667-0.667s-0.298-0.667-0.667-0.667c-0.368 0-0.667 0.298-0.667 0.667s0.298 0.667 0.667 0.667z"></path>
<path fill="#2f3458" style="fill: var(--color1, #2f3458)" d="M6.667 10.333c0-0.184 0.149-0.333 0.333-0.333h2c0.184 0 0.333 0.149 0.333 0.333s-0.149 0.333-0.333 0.333h-2c-0.184 0-0.333-0.149-0.333-0.333z"></path>
<path fill="#2f3458" style="fill: var(--color1, #2f3458)" d="M14.667 10.333c0-0.184 0.149-0.333 0.333-0.333h2c0.184 0 0.333 0.149 0.333 0.333s-0.149 0.333-0.333 0.333h-2c-0.184 0-0.333-0.149-0.333-0.333z"></path>
<path fill="#2f3458" style="fill: var(--color1, #2f3458)" d="M22.667 10.333c0-0.184 0.149-0.333 0.333-0.333h2c0.184 0 0.333 0.149 0.333 0.333s-0.149 0.333-0.333 0.333h-2c-0.184 0-0.333-0.149-0.333-0.333z"></path>
<path fill="#2f3458" style="fill: var(--color1, #2f3458)" d="M6.667 13c0-0.184 0.149-0.333 0.333-0.333h2c0.184 0 0.333 0.149 0.333 0.333s-0.149 0.333-0.333 0.333h-2c-0.184 0-0.333-0.149-0.333-0.333z"></path>
<path fill="#2f3458" style="fill: var(--color1, #2f3458)" d="M14.667 13c0-0.184 0.149-0.333 0.333-0.333h2c0.184 0 0.333 0.149 0.333 0.333s-0.149 0.333-0.333 0.333h-2c-0.184 0-0.333-0.149-0.333-0.333z"></path>
<path fill="#2f3458" style="fill: var(--color1, #2f3458)" d="M22.667 13c0-0.184 0.149-0.333 0.333-0.333h2c0.184 0 0.333 0.149 0.333 0.333s-0.149 0.333-0.333 0.333h-2c-0.184 0-0.333-0.149-0.333-0.333z"></path>
<path fill="#2f3458" style="fill: var(--color1, #2f3458)" d="M6.667 15.667c0-0.184 0.149-0.333 0.333-0.333h2c0.184 0 0.333 0.149 0.333 0.333s-0.149 0.333-0.333 0.333h-2c-0.184 0-0.333-0.149-0.333-0.333z"></path>
<path fill="#2f3458" style="fill: var(--color1, #2f3458)" d="M14.667 15.667c0-0.184 0.149-0.333 0.333-0.333h2c0.184 0 0.333 0.149 0.333 0.333s-0.149 0.333-0.333 0.333h-2c-0.184 0-0.333-0.149-0.333-0.333z"></path>
<path fill="#2f3458" style="fill: var(--color1, #2f3458)" d="M22.667 15.667c0-0.184 0.149-0.333 0.333-0.333h2c0.184 0 0.333 0.149 0.333 0.333s-0.149 0.333-0.333 0.333h-2c-0.184 0-0.333-0.149-0.333-0.333z"></path>
</symbol>
<symbol id="works-packaging" viewBox="0 0 32 32">
<path fill="#2f3458" style="fill: var(--color1, #2f3458)" d="M9.629 10.333l-1.92 16h11.995l1.92-16h-11.995zM9.001 9.972c0.021-0.174 0.169-0.305 0.344-0.305h12.64c0.208 0 0.369 0.182 0.344 0.388l-1.997 16.64c-0.021 0.174-0.169 0.305-0.344 0.305h-12.64c-0.208 0-0.369-0.182-0.344-0.388l1.997-16.64z"></path>
<path fill="#2f3458" style="fill: var(--color1, #2f3458)" d="M9.847 6.333c-0.31 0-0.586 0.049-0.805 0.179-0.448 0.265-0.697 0.592-0.819 0.925-0.123 0.336-0.122 0.699-0.030 1.040 0.092 0.343 0.273 0.649 0.491 0.866 0.22 0.22 0.453 0.323 0.65 0.323 0.184 0 0.333 0.149 0.333 0.333s-0.149 0.333-0.333 0.333c-0.427 0-0.819-0.218-1.12-0.518-0.304-0.303-0.542-0.714-0.664-1.165-0.122-0.452-0.129-0.958 0.047-1.442 0.178-0.488 0.536-0.933 1.106-1.27 0.364-0.215 0.776-0.271 1.145-0.271h11.486v0.667c-0.076 0-0.253 0.045-0.48 0.177-0.217 0.126-0.444 0.311-0.624 0.544-0.179 0.232-0.306 0.504-0.337 0.811-0.031 0.304 0.029 0.664 0.26 1.080 0.071 0.128 0.148 0.219 0.231 0.271 0.259 0.164 0.596 0.189 0.859 0.085 0.247-0.098 0.423-0.302 0.423-0.634 0-0.184 0.149-0.333 0.333-0.333s0.333 0.149 0.333 0.333c0 0.633-0.37 1.067-0.845 1.254-0.458 0.181-1.019 0.139-1.461-0.141-0.213-0.135-0.357-0.331-0.457-0.51-0.291-0.522-0.388-1.018-0.341-1.472 0.046-0.452 0.233-0.839 0.472-1.15 0.088-0.114 0.184-0.219 0.284-0.314h-10.139z"></path>
<path fill="#2f3458" style="fill: var(--color1, #2f3458)" d="M21 6c0-0.184 0.149-0.333 0.333-0.333 0.909 0 1.509 0.386 1.87 0.889 0.344 0.478 0.459 1.040 0.463 1.426l1.997 18.635c0.022 0.205-0.139 0.384-0.345 0.384h-5.319c-0.184 0-0.333-0.149-0.333-0.333s0.149-0.333 0.333-0.333h4.962l-1.962-18.316v-0.018c0-0.28-0.087-0.707-0.337-1.055-0.238-0.331-0.638-0.611-1.329-0.611-0.184 0-0.333-0.149-0.333-0.333z"></path>
<path fill="#2f3458" style="fill: var(--color1, #2f3458)" d="M16 15.229l-1.333-1.333-1.333 1.333v-5.333h2.667v5.333zM14 13.62l0.667-0.667 0.667 0.667v-3.057h-1.333v3.057z"></path>
</symbol>
<symbol id="works-label" viewBox="0 0 32 32">
<path fill="#2f3458" style="fill: var(--color1, #2f3458)" d="M12.056 11.897c0.128-0.132 0.339-0.135 0.471-0.006l7.164 6.977c0.132 0.128 0.135 0.339 0.006 0.471s-0.339 0.135-0.471 0.006l-7.164-6.977c-0.132-0.128-0.135-0.339-0.006-0.471z"></path>
<path fill="#2f3458" style="fill: var(--color1, #2f3458)" d="M23.332 8.919c-0.132-0.128-0.135-0.339-0.006-0.471l4.39-4.507c0.128-0.132 0.34-0.135 0.471-0.006s0.135 0.339 0.006 0.471l-4.39 4.507c-0.128 0.132-0.339 0.135-0.471 0.006z"></path>
<path fill="#2f3458" style="fill: var(--color1, #2f3458)" d="M10.196 13.807c0.128-0.132 0.339-0.135 0.471-0.006l7.164 6.977c0.132 0.128 0.135 0.339 0.006 0.471s-0.339 0.135-0.471 0.006l-7.164-6.977c-0.132-0.128-0.135-0.339-0.006-0.471z"></path>
<path fill="#2f3458" style="fill: var(--color1, #2f3458)" d="M15.316 26.704c-0.771 0.791-2.037 0.808-2.828 0.037l-7.641-7.442c-0.791-0.771-0.808-2.037-0.037-2.828l9.786-10.048c0.364-0.374 0.86-0.59 1.381-0.604l8.355-0.216c1.19-0.031 2.143 0.978 2.045 2.164l-0.625 7.567c-0.038 0.463-0.236 0.898-0.56 1.231l-9.875 10.139zM15.959 5.153c-0.695 0.018-1.356 0.307-1.841 0.805l-9.786 10.048c-1.028 1.055-1.005 2.743 0.050 3.771l7.641 7.442c1.055 1.028 2.743 1.005 3.771-0.050l9.875-10.139c0.432-0.444 0.696-1.024 0.747-1.641l0.625-7.568c0.131-1.581-1.14-2.926-2.727-2.885l-8.355 0.216z"></path>
<path fill="#2f3458" style="fill: var(--color1, #2f3458)" d="M20.302 12.030c-0.791-0.771-0.808-2.037-0.037-2.828s2.037-0.808 2.828-0.037c0.791 0.771 0.808 2.037 0.037 2.828s-2.037 0.808-2.828 0.037zM19.837 12.508c1.055 1.028 2.743 1.005 3.771-0.050s1.005-2.743-0.050-3.771c-1.055-1.028-2.743-1.005-3.771 0.050s-1.005 2.743 0.050 3.771z"></path>
</symbol>

<symbol id="facebook" viewBox="0 0 32 32">
<path fill=""  d="M22.4 31.36v-11.52h3.429l0.598-5.12h-4.027v-2.852c0-1.342-0.084-2.257 1.841-2.257l1.999-0.001v-4.147c-0.64-0.056-1.592-0.182-3.287-0.182-3.54 0-5.673 2.161-5.673 6.129v3.311h-4.48v5.12h4.48v11.52h5.12z"></path>
<path fill=""  d="M27.52 32h-23.040c-2.47 0-4.48-2.010-4.48-4.48v-23.040c0-2.47 2.010-4.48 4.48-4.48h23.040c2.47 0 4.48 2.010 4.48 4.48v23.040c0 2.47-2.010 4.48-4.48 4.48zM4.48 1.28c-1.764 0-3.2 1.436-3.2 3.2v23.040c0 1.765 1.436 3.2 3.2 3.2h23.040c1.765 0 3.2-1.436 3.2-3.2v-23.040c0-1.764-1.436-3.2-3.2-3.2h-23.040z"></path>
</symbol>
<symbol id="instagram" viewBox="0 0 32 32">
<path fill=""  d="M23.68 32h-15.36c-4.588 0-8.32-3.733-8.32-8.32v-15.36c0-4.588 3.732-8.32 8.32-8.32h15.36c4.587 0 8.32 3.732 8.32 8.32v15.36c0 4.587-3.733 8.32-8.32 8.32zM8.32 1.28c-3.882 0-7.040 3.158-7.040 7.040v15.36c0 3.882 3.158 7.040 7.040 7.040h15.36c3.882 0 7.040-3.158 7.040-7.040v-15.36c0-3.882-3.158-7.040-7.040-7.040h-15.36z"></path>
<path fill=""  d="M16 24.32c-4.588 0-8.32-3.733-8.32-8.32s3.732-8.32 8.32-8.32c4.587 0 8.32 3.732 8.32 8.32s-3.733 8.32-8.32 8.32zM16 10.24c-3.176 0-5.76 2.584-5.76 5.76s2.584 5.76 5.76 5.76c3.176 0 5.76-2.584 5.76-5.76s-2.584-5.76-5.76-5.76z"></path>
<path fill=""  d="M24.96 5.12c-0.509 0-0.998 0.202-1.358 0.562s-0.562 0.848-0.562 1.358c0 0.509 0.202 0.998 0.562 1.358s0.848 0.562 1.358 0.562c0.509 0 0.998-0.202 1.358-0.562s0.562-0.848 0.562-1.358c0-0.509-0.202-0.998-0.562-1.358s-0.848-0.562-1.358-0.562z"></path>
</symbol>
</defs>
</svg>
