<svg aria-hidden="true" style="position: absolute; width: 0; height: 0; overflow: hidden;" version="1.1" xmlns="http://www.w3.org/2000/svg" xmlns:xlink="http://www.w3.org/1999/xlink">
<defs>
<symbol id="burger-menu" viewBox="0 0 32 32">
<path fill="#f2f4ff" style="fill: var(--color1, #f2f4ff)" d="M4 9.333c0-0.736 0.597-1.333 1.333-1.333h21.333c0.736 0 1.333 0.597 1.333 1.333s-0.597 1.333-1.333 1.333h-21.333c-0.736 0-1.333-0.597-1.333-1.333z"></path>
<path fill="#f2f4ff" style="fill: var(--color1, #f2f4ff)" d="M4 16c0-0.736 0.597-1.333 1.333-1.333h21.333c0.736 0 1.333 0.597 1.333 1.333s-0.597 1.333-1.333 1.333h-21.333c-0.736 0-1.333-0.597-1.333-1.333z"></path>
<path fill="#f2f4ff" style="fill: var(--color1, #f2f4ff)" d="M4 22.667c0-0.736 0.597-1.333 1.333-1.333h21.333c0.736 0 1.333 0.597 1.333 1.333s-0.597 1.333-1.333 1.333h-21.333c-0.736 0-1.333-0.597-1.333-1.333z"></path>
</symbol>
<symbol id="close-burger-menu" viewBox="0 0 32 32">
<path fill="#f2f4ff" style="fill: var(--color1, #f2f4ff)" d="M8.35 23.648c-0.467-0.469-0.467-1.23 0-1.7l13.525-13.596c0.467-0.469 1.224-0.469 1.691 0s0.467 1.23 0 1.7l-13.525 13.596c-0.467 0.469-1.224 0.469-1.691 0z"></path>
<path fill="#f2f4ff" style="fill: var(--color1, #f2f4ff)" d="M8.434 8.352c0.467-0.469 1.224-0.469 1.691 0l13.525 13.596c0.467 0.469 0.467 1.23 0 1.7s-1.224 0.469-1.691 0l-13.525-13.596c-0.467-0.469-0.467-1.23 0-1.7z"></path>
</symbol>
<symbol id="logo" viewBox="0 0 32 32">
<path fill="#2f3458" style="fill: var(--color2, #2f3458)" d="M32.005 15.999c0 3.164-0.938 6.258-2.695 8.889s-4.256 4.682-7.18 5.894c-2.923 1.211-6.14 1.529-9.244 0.912s-5.955-2.14-8.193-4.377c-2.238-2.237-3.763-5.087-4.381-8.191s-0.302-6.32 0.908-9.244c1.21-2.924 3.26-5.423 5.89-7.183s5.723-2.699 8.888-2.7c2.102-0.001 4.183 0.412 6.125 1.216s3.707 1.982 5.193 3.468c1.487 1.486 2.666 3.25 3.47 5.191s1.219 4.023 1.219 6.124z"></path>
<path fill="#fff" style="fill: var(--color3, #fff)" d="M12.679 8.733c-0.398 0.116-0.771 0.307-1.099 0.561-0.331 0.27-0.621 0.587-0.862 0.94-0.263 0.378-0.542 0.813-0.855 1.322l-3.464 5.75v4.336c0.311-0.011 0.621-0.048 0.927-0.11 0.411-0.101 0.804-0.261 1.169-0.476 0.349-0.201 0.664-0.456 0.935-0.753 0.27-0.294 0.498-0.625 0.677-0.982l3.601-6.471v-4.275c-0.348 0.016-0.693 0.069-1.030 0.157z"></path>
<path fill="#fff" style="fill: var(--color3, #fff)" d="M24.135 8.637c-0.183-0.49-0.459-0.941-0.813-1.326-0.377-0.404-0.834-0.725-1.342-0.941s-1.056-0.324-1.608-0.316c-0.459-0.005-0.915 0.059-1.355 0.191-0.401 0.125-0.78 0.312-1.123 0.555-0.34 0.245-0.641 0.541-0.893 0.877-0.263 0.354-0.479 0.74-0.645 1.149l-3.455 7.526v4.975c0.333-0.020 0.661-0.082 0.978-0.184 0.394-0.139 0.754-0.362 1.054-0.653 0.328-0.323 0.608-0.692 0.831-1.095 0.25-0.439 0.521-0.952 0.813-1.539l3.891-7.851v7.024c-0.157-0.096-0.333-0.157-0.516-0.179-0.322-0.045-0.898 0-1.641 0.173v1.853c0 0 1.301-0.677 2.157-0.043v2.303h3.949v-10.934c0.002-0.535-0.094-1.065-0.283-1.565z"></path>
<path fill="#fff" style="fill: var(--color3, #fff)" d="M7.368 23.588l0.626-0.882h0.457v1.069h-0.29v-0.928l-0.677 0.928h-0.241l-0.668-0.928v0.928h-0.285v-1.069h0.454l0.625 0.882z"></path>
<path fill="#fff" style="fill: var(--color3, #fff)" d="M10.016 22.706h0.291l-0.579 1.211c-0.032 0.077-0.078 0.148-0.135 0.209-0.051 0.048-0.113 0.083-0.18 0.103-0.082 0.021-0.166 0.031-0.251 0.030-0.054 0.001-0.108-0.004-0.161-0.014v-0.135c0.035 0.006 0.071 0.009 0.107 0.009 0.059 0.001 0.118-0.007 0.175-0.026 0.046-0.020 0.085-0.053 0.112-0.095 0.048-0.073 0.090-0.149 0.126-0.229h-0.122l-0.686-1.069h0.287l0.589 0.948 0.425-0.943z"></path>
<path fill="#fff" style="fill: var(--color3, #fff)" d="M12.050 23.775h-0.287v-0.94h-0.805v0.635c0 0.206-0.152 0.309-0.453 0.309h-0.135v-0.135h0.043c0.072 0.005 0.145-0.006 0.211-0.034 0.034-0.022 0.052-0.070 0.052-0.145v-0.757h1.379l-0.005 1.068z"></path>
<path fill="#fff" style="fill: var(--color3, #fff)" d="M12.52 22.706h0.287v0.431h0.691c0.366 0 0.55 0.106 0.55 0.32 0.002 0.051-0.012 0.101-0.039 0.144s-0.066 0.077-0.113 0.097c-0.125 0.056-0.261 0.083-0.398 0.077h-0.978v-1.069zM13.402 23.645c0.092 0.006 0.184-0.008 0.271-0.041 0.026-0.014 0.048-0.036 0.062-0.062s0.020-0.056 0.017-0.086c0.003-0.030-0.003-0.060-0.017-0.087s-0.036-0.049-0.062-0.063c-0.092-0.033-0.191-0.046-0.289-0.039h-0.583v0.378h0.6z"></path>
<path fill="#fff" style="fill: var(--color3, #fff)" d="M14.903 22.836h-0.646v-0.135h1.587v0.135h-0.652v0.939h-0.289v-0.939z"></path>
<path fill="#fff" style="fill: var(--color3, #fff)" d="M16.108 23.775v-1.069h0.283v0.875l0.969-0.875h0.347v1.069h-0.283v-0.87l-0.959 0.87h-0.356z"></path>
<path fill="#fff" style="fill: var(--color3, #fff)" d="M20.325 23.252v-0.153c0.005-0.067-0.009-0.134-0.041-0.194-0.019-0.023-0.042-0.041-0.068-0.055s-0.055-0.022-0.084-0.024c-0.118-0.017-0.237-0.024-0.356-0.020-0.090-0.002-0.181 0.002-0.271 0.012-0.049 0.003-0.096 0.019-0.135 0.047-0.014 0.013-0.025 0.029-0.033 0.047s-0.012 0.037-0.013 0.056v0.031h-0.293c-0.001-0.040 0.007-0.080 0.025-0.117s0.045-0.067 0.078-0.091c0.074-0.049 0.159-0.078 0.247-0.087 0.135-0.014 0.271-0.020 0.406-0.019 0.155-0.002 0.311 0.007 0.465 0.027 0.099 0.009 0.193 0.046 0.271 0.108 0.033 0.031 0.058 0.069 0.074 0.111s0.023 0.087 0.020 0.132v0.71h-0.271l0.011-0.135c-0.039 0.041-0.085 0.075-0.135 0.1-0.059 0.024-0.122 0.038-0.186 0.043-0.073 0.007-0.176 0.011-0.308 0.011-0.138 0.002-0.276-0.007-0.413-0.026-0.089-0.011-0.173-0.045-0.244-0.1-0.029-0.028-0.052-0.061-0.067-0.099s-0.021-0.078-0.018-0.118c-0.002-0.038 0.004-0.076 0.018-0.111s0.037-0.067 0.066-0.092c0.070-0.053 0.154-0.086 0.241-0.096 0.13-0.019 0.261-0.027 0.393-0.026 0.145 0 0.26 0 0.341 0.014 0.062 0.004 0.124 0.017 0.183 0.038 0.038 0.017 0.071 0.043 0.098 0.075zM20.325 23.463c0.002-0.025-0.002-0.050-0.012-0.074s-0.023-0.045-0.041-0.062c-0.052-0.035-0.113-0.055-0.176-0.057-0.084-0.008-0.217-0.014-0.4-0.014-0.112-0.005-0.225 0.008-0.333 0.038-0.031 0.009-0.058 0.029-0.077 0.055s-0.027 0.059-0.025 0.091c-0.002 0.049 0.014 0.097 0.045 0.135 0.037 0.037 0.084 0.062 0.135 0.072 0.084 0.015 0.169 0.022 0.255 0.020 0.148 0 0.264 0 0.348-0.012 0.070-0.003 0.139-0.021 0.201-0.054 0.025-0.012 0.046-0.031 0.061-0.055s0.023-0.051 0.023-0.078l-0.004-0.007z"></path>
<path fill="#fff" style="fill: var(--color3, #fff)" d="M21.383 23.651v0.584h-0.289v-1.53h0.28l-0.009 0.135c0.072-0.060 0.157-0.102 0.249-0.122 0.115-0.026 0.232-0.038 0.35-0.035 0.165-0.007 0.331 0.014 0.489 0.064 0.046 0.014 0.089 0.037 0.126 0.067s0.068 0.068 0.090 0.11c0.038 0.099 0.056 0.204 0.051 0.31 0.002 0.079-0.007 0.158-0.024 0.236-0.016 0.064-0.049 0.123-0.096 0.169-0.063 0.055-0.138 0.094-0.22 0.112-0.126 0.030-0.256 0.044-0.386 0.041-0.123 0.002-0.245-0.008-0.366-0.030-0.091-0.014-0.176-0.053-0.245-0.112zM21.383 23.234c0.001 0.087 0.015 0.173 0.042 0.256 0.012 0.030 0.031 0.057 0.054 0.079s0.051 0.039 0.081 0.050c0.108 0.034 0.221 0.049 0.333 0.043 0.122 0.006 0.245-0.009 0.362-0.045 0.032-0.010 0.062-0.028 0.087-0.051s0.044-0.052 0.055-0.084c0.022-0.083 0.031-0.169 0.028-0.255 0.003-0.083-0.006-0.166-0.027-0.247-0.012-0.030-0.030-0.056-0.054-0.078s-0.051-0.038-0.082-0.047c-0.115-0.037-0.235-0.053-0.355-0.046-0.121-0.005-0.242 0.009-0.359 0.042-0.030 0.009-0.058 0.025-0.081 0.046s-0.042 0.047-0.054 0.076c-0.023 0.085-0.034 0.172-0.031 0.26z"></path>
<path fill="#fff" style="fill: var(--color3, #fff)" d="M23.586 22.836h-0.65v-0.135h1.588v0.135h-0.648v0.939h-0.287l-0.003-0.939z"></path>
</symbol>
<symbol id="hero-promotion" viewBox="0 0 32 32">
<path fill="#f6f6f6" style="fill: var(--color1, #f6f6f6)" d="M12.881 11.667c0-0.184 0.149-0.333 0.333-0.333h7.333c0.184 0 0.333 0.149 0.333 0.333s-0.149 0.333-0.333 0.333h-7.333c-0.184 0-0.333-0.149-0.333-0.333z"></path>
<path fill="#f6f6f6" style="fill: var(--color1, #f6f6f6)" d="M22.215 6c0.368 0 0.667 0.298 0.667 0.667v20c0 0.368-0.298 0.667-0.667 0.667h-10.667c-0.368 0-0.667-0.299-0.667-0.667v-20c0-0.368 0.298-0.667 0.667-0.667h10.667zM11.548 5.333c-0.736 0-1.333 0.597-1.333 1.333v20c0 0.736 0.597 1.333 1.333 1.333h10.667c0.736 0 1.333-0.597 1.333-1.333v-20c0-0.736-0.597-1.333-1.333-1.333h-10.667z"></path>
<path fill="#f6f6f6" style="fill: var(--color1, #f6f6f6)" d="M19.548 14c0.368 0 0.667 0.298 0.667 0.667v2.667c0 0.368-0.298 0.667-0.667 0.667h-5.333c-0.368 0-0.667-0.298-0.667-0.667v-2.667c0-0.368 0.298-0.667 0.667-0.667h5.333zM14.215 13.333c-0.736 0-1.333 0.597-1.333 1.333v2.667c0 0.736 0.597 1.333 1.333 1.333h5.333c0.736 0 1.333-0.597 1.333-1.333v-2.667c0-0.736-0.597-1.333-1.333-1.333h-5.333z"></path>
<path fill="#f6f6f6" style="fill: var(--color1, #f6f6f6)" d="M10.52 8.533c0.074 0.169-0.004 0.365-0.172 0.439l-4.809 2.096c-0.497 0.217-0.731 0.79-0.527 1.293l6.025 14.847c0.069 0.171-0.013 0.365-0.184 0.434s-0.365-0.013-0.434-0.183l-6.025-14.847c-0.34-0.838 0.050-1.793 0.878-2.155l4.809-2.096c0.169-0.074 0.365 0.004 0.439 0.172z"></path>
</symbol>
<symbol id="hero-after-printing" viewBox="0 0 32 32">
<path fill="#f6f6f6" style="fill: var(--color1, #f6f6f6)" d="M23.34 5.987h-14.078v20.692h15.492v-19.451c0-0.623-0.824-1.24-1.414-1.24zM8.362 27.636v-22.545h14.956c1.18 0 2.137 1.009 2.137 2.255v20.291h-17.093z"></path>
<path fill="#f6f6f6" style="fill: var(--color1, #f6f6f6)" d="M6.545 8.508c0-0.187 0.144-0.338 0.321-0.338h3.632c0.177 0 0.32 0.151 0.32 0.338s-0.143 0.338-0.32 0.338h-3.632c-0.177 0-0.321-0.151-0.321-0.338z"></path>
<path fill="#f6f6f6" style="fill: var(--color1, #f6f6f6)" d="M6.545 12.678c0-0.187 0.144-0.338 0.321-0.338h3.632c0.177 0 0.32 0.151 0.32 0.338s-0.143 0.338-0.32 0.338h-3.632c-0.177 0-0.321-0.151-0.321-0.338z"></path>
<path fill="#f6f6f6" style="fill: var(--color1, #f6f6f6)" d="M6.545 17.188c0-0.187 0.144-0.338 0.321-0.338h3.632c0.177 0 0.32 0.151 0.32 0.338s-0.143 0.338-0.32 0.338h-3.632c-0.177 0-0.321-0.151-0.321-0.338z"></path>
<path fill="#f6f6f6" style="fill: var(--color1, #f6f6f6)" d="M6.545 21.697c0-0.187 0.144-0.338 0.321-0.338h3.632c0.177 0 0.32 0.151 0.32 0.338s-0.143 0.338-0.32 0.338h-3.632c-0.177 0-0.321-0.151-0.321-0.338z"></path>
<path fill="#f6f6f6" style="fill: var(--color1, #f6f6f6)" d="M21.733 10.069l-5.553 4.371 0.797 0.467c0.165 0.097 0.16 0.348-0.008 0.438l-1.649 0.884 1.867 1.094c0.129 0.076 0.161 0.257 0.066 0.376l-3.555 4.476 7.259-4.42-1.883-1.103c-0.149-0.087-0.163-0.308-0.026-0.416l2.213-1.742-1.929-1.131c-0.132-0.077-0.162-0.263-0.061-0.382l2.463-2.914zM23.002 8.508c0.227-0.179 0.504 0.141 0.316 0.364l-3.569 4.222 1.979 1.16c0.149 0.087 0.163 0.308 0.026 0.416l-2.213 1.742 1.919 1.125c0.16 0.094 0.162 0.335 0.003 0.432l-8.495 5.172c-0.228 0.139-0.466-0.162-0.298-0.374l4.105-5.168-1.98-1.16c-0.165-0.096-0.16-0.348 0.008-0.438l1.649-0.884-0.74-0.434c-0.149-0.087-0.163-0.308-0.026-0.416l7.316-5.759z"></path>
</symbol>
<symbol id="hero-ctp" viewBox="0 0 32 32">
<path fill="#f6f6f6" style="fill: var(--color1, #f6f6f6)" d="M16 4.961l11.377 5.689-11.377 6.4-11.377-6.4 11.377-5.689zM6.044 10.684l9.956 5.6 9.956-5.6-9.956-4.978-9.956 4.978z"></path>
<path fill="#f6f6f6" style="fill: var(--color1, #f6f6f6)" d="M9.149 12.389l0.37 0.555-3.548 2.365 10.034 5.644 10.678-5.653-3.535-2.356 0.37-0.555 4.465 2.977-11.989 6.347-11.299-6.356 4.452-2.968z"></path>
<path fill="#f6f6f6" style="fill: var(--color1, #f6f6f6)" d="M5.997 19.324l2.841-1.705-0.343-0.572-3.825 2.295 11.325 6.37 12.016-6.362-3.84-2.304-0.343 0.572 2.827 1.696-10.65 5.638-10.008-5.63z"></path>
</symbol>
</defs>
</svg>
